<svg version="1.1" viewBox="0.0 0.0 481.0 297.0" fill="none" stroke="none" stroke-linecap="square" stroke-miterlimit="10" width="481" height="297" xmlns:xlink="http://www.w3.org/1999/xlink" xmlns="http://www.w3.org/2000/svg"><path fill="#ffffff" d="M0 0L481.0 0L481.0 297.0L0 297.0L0 0Z" fill-rule="nonzero"/><path stroke="#cccccc" stroke-width="1.0" stroke-linecap="butt" d="M147.5 79.5L147.5 230.5" fill-rule="nonzero"/><path stroke="#cccccc" stroke-width="1.0" stroke-linecap="butt" d="M208.5 79.5L208.5 230.5" fill-rule="nonzero"/><path stroke="#cccccc" stroke-width="1.0" stroke-linecap="butt" d="M270.5 79.5L270.5 230.5" fill-rule="nonzero"/><path stroke="#cccccc" stroke-width="1.0" stroke-linecap="butt" d="M332.5 79.5L332.5 230.5" fill-rule="nonzero"/><path stroke="#cccccc" stroke-width="1.0" stroke-linecap="butt" d="M393.5 79.5L393.5 230.5" fill-rule="nonzero"/><path stroke="#cccccc" stroke-width="1.0" stroke-linecap="butt" d="M455.5 79.5L455.5 230.5" fill-rule="nonzero"/><path stroke="#333333" stroke-width="1.0" stroke-linecap="butt" d="M90.5 230.5L466.5 230.5" fill-rule="nonzero"/><path stroke="#cccccc" stroke-width="1.0" stroke-linecap="butt" d="M90.5 200.5L466.5 200.5" fill-rule="nonzero"/><path stroke="#cccccc" stroke-width="1.0" stroke-linecap="butt" d="M90.5 169.5L466.5 169.5" fill-rule="nonzero"/><path stroke="#cccccc" stroke-width="1.0" stroke-linecap="butt" d="M90.5 139.5L466.5 139.5" fill-rule="nonzero"/><path stroke="#cccccc" stroke-width="1.0" stroke-linecap="butt" d="M90.5 109.5L466.5 109.5" fill-rule="nonzero"/><path stroke="#cccccc" stroke-width="1.0" stroke-linecap="butt" d="M90.5 79.5L466.5 79.5" fill-rule="nonzero"/><clipPath id="id_0"><path d="M90.85 79.65L466.15 79.65L466.15 230.15L90.85 230.15L90.85 79.65Z" clip-rule="nonzero"/></clipPath><path stroke="#4285f4" stroke-width="2.0" stroke-linecap="butt" clip-path="url(#id_0)" d="M90.85 204.4765L95.771965 204.29602L99.46344 202.76888L105.6159 195.80554L114.22935 195.064L124.07328 193.6983L217.59065 176.45847L400.93393 165.48509L466.15 154.56793" fill-rule="nonzero"/><path stroke="#ea4335" stroke-width="2.0" stroke-linecap="butt" clip-path="url(#id_0)" d="M90.85 218.4686L95.771965 218.47684L99.46344 218.48445L105.6159 218.50125L114.22935 208.6798L124.07328 208.70892L217.59065 176.43114L400.93393 128.14796L466.15 105.582954" fill-rule="nonzero"/><path fill="#000000" fill-opacity="0.0" clip-path="url(#id_0)" d="M93.85 204.4765C93.85 206.13336 92.50685 207.4765 90.85 207.4765C89.193146 207.4765 87.85 206.13336 87.85 204.4765C87.85 202.81966 89.193146 201.4765 90.85 201.4765C92.50685 201.4765 93.85 202.81966 93.85 204.4765Z" fill-rule="nonzero"/><path fill="#000000" fill-opacity="0.0" clip-path="url(#id_0)" d="M98.771965 204.29602C98.771965 205.95288 97.42882 207.29602 95.771965 207.29602C94.11511 207.29602 92.771965 205.95288 92.771965 204.29602C92.771965 202.63918 94.11511 201.29602 95.771965 201.29602C97.42882 201.29602 98.771965 202.63918 98.771965 204.29602Z" fill-rule="nonzero"/><path fill="#000000" fill-opacity="0.0" clip-path="url(#id_0)" d="M102.46344 202.76888C102.46344 204.42572 101.1203 205.76888 99.46344 205.76888C97.80659 205.76888 96.46344 204.42572 96.46344 202.76888C96.46344 201.11201 97.80659 199.76888 99.46344 199.76888C101.1203 199.76888 102.46344 201.11201 102.46344 202.76888Z" fill-rule="nonzero"/><path fill="#000000" fill-opacity="0.0" clip-path="url(#id_0)" d="M108.6159 195.80554C108.6159 197.46239 107.27276 198.80554 105.6159 198.80554C103.959045 198.80554 102.6159 197.46239 102.6159 195.80554C102.6159 194.14868 103.959045 192.80554 105.6159 192.80554C107.27276 192.80554 108.6159 194.14868 108.6159 195.80554Z" fill-rule="nonzero"/><path fill="#000000" fill-opacity="0.0" clip-path="url(#id_0)" d="M117.22935 195.064C117.22935 196.72086 115.8862 198.064 114.22935 198.064C112.57249 198.064 111.22935 196.72086 111.22935 195.064C111.22935 193.40714 112.57249 192.064 114.22935 192.064C115.8862 192.064 117.22935 193.40714 117.22935 195.064Z" fill-rule="nonzero"/><path fill="#000000" fill-opacity="0.0" clip-path="url(#id_0)" d="M127.07328 193.6983C127.07328 195.35515 125.73013 196.6983 124.07328 196.6983C122.41643 196.6983 121.07328 195.35515 121.07328 193.6983C121.07328 192.04144 122.41643 190.6983 124.07328 190.6983C125.73013 190.6983 127.07328 192.04144 127.07328 193.6983Z" fill-rule="nonzero"/><path fill="#000000" fill-opacity="0.0" clip-path="url(#id_0)" d="M220.59065 176.45847C220.59065 178.11531 219.24751 179.45847 217.59065 179.45847C215.9338 179.45847 214.59065 178.11531 214.59065 176.45847C214.59065 174.8016 215.9338 173.45847 217.59065 173.45847C219.24751 173.45847 220.59065 174.8016 220.59065 176.45847Z" fill-rule="nonzero"/><path fill="#000000" fill-opacity="0.0" clip-path="url(#id_0)" d="M403.93393 165.48509C403.93393 167.14194 402.5908 168.48509 400.93393 168.48509C399.27707 168.48509 397.93393 167.14194 397.93393 165.48509C397.93393 163.82823 399.27707 162.48509 400.93393 162.48509C402.5908 162.48509 403.93393 163.82823 403.93393 165.48509Z" fill-rule="nonzero"/><path fill="#000000" fill-opacity="0.0" clip-path="url(#id_0)" d="M469.15 154.56793C469.15 156.2248 467.80685 157.56793 466.15 157.56793C464.49313 157.56793 463.15 156.2248 463.15 154.56793C463.15 152.91109 464.49313 151.56793 466.15 151.56793C467.80685 151.56793 469.15 152.91109 469.15 154.56793Z" fill-rule="nonzero"/><path fill="#000000" fill-opacity="0.0" clip-path="url(#id_0)" d="M93.85 218.4686C93.85 220.12546 92.50685 221.4686 90.85 221.4686C89.193146 221.4686 87.85 220.12546 87.85 218.4686C87.85 216.81175 89.193146 215.4686 90.85 215.4686C92.50685 215.4686 93.85 216.81175 93.85 218.4686Z" fill-rule="nonzero"/><path fill="#000000" fill-opacity="0.0" clip-path="url(#id_0)" d="M98.771965 218.47684C98.771965 220.13368 97.42882 221.47684 95.771965 221.47684C94.11511 221.47684 92.771965 220.13368 92.771965 218.47684C92.771965 216.81998 94.11511 215.47684 95.771965 215.47684C97.42882 215.47684 98.771965 216.81998 98.771965 218.47684Z" fill-rule="nonzero"/><path fill="#000000" fill-opacity="0.0" clip-path="url(#id_0)" d="M102.46344 218.48445C102.46344 220.1413 101.1203 221.48445 99.46344 221.48445C97.80659 221.48445 96.46344 220.1413 96.46344 218.48445C96.46344 216.82759 97.80659 215.48445 99.46344 215.48445C101.1203 215.48445 102.46344 216.82759 102.46344 218.48445Z" fill-rule="nonzero"/><path fill="#000000" fill-opacity="0.0" clip-path="url(#id_0)" d="M108.6159 218.50125C108.6159 220.15811 107.27276 221.50125 105.6159 221.50125C103.959045 221.50125 102.6159 220.15811 102.6159 218.50125C102.6159 216.84439 103.959045 215.50125 105.6159 215.50125C107.27276 215.50125 108.6159 216.84439 108.6159 218.50125Z" fill-rule="nonzero"/><path fill="#000000" fill-opacity="0.0" clip-path="url(#id_0)" d="M117.22935 208.6798C117.22935 210.33664 115.8862 211.6798 114.22935 211.6798C112.57249 211.6798 111.22935 210.33664 111.22935 208.6798C111.22935 207.02293 112.57249 205.6798 114.22935 205.6798C115.8862 205.6798 117.22935 207.02293 117.22935 208.6798Z" fill-rule="nonzero"/><path fill="#000000" fill-opacity="0.0" clip-path="url(#id_0)" d="M127.07328 208.70892C127.07328 210.36578 125.73013 211.70892 124.07328 211.70892C122.41643 211.70892 121.07328 210.36578 121.07328 208.70892C121.07328 207.05208 122.41643 205.70892 124.07328 205.70892C125.73013 205.70892 127.07328 207.05208 127.07328 208.70892Z" fill-rule="nonzero"/><path fill="#000000" fill-opacity="0.0" clip-path="url(#id_0)" d="M220.59065 176.43114C220.59065 178.08798 219.24751 179.43114 217.59065 179.43114C215.9338 179.43114 214.59065 178.08798 214.59065 176.43114C214.59065 174.77428 215.9338 173.43114 217.59065 173.43114C219.24751 173.43114 220.59065 174.77428 220.59065 176.43114Z" fill-rule="nonzero"/><path fill="#000000" fill-opacity="0.0" clip-path="url(#id_0)" d="M403.93393 128.14796C403.93393 129.80481 402.5908 131.14796 400.93393 131.14796C399.27707 131.14796 397.93393 129.80481 397.93393 128.14796C397.93393 126.49111 399.27707 125.147964 400.93393 125.147964C402.5908 125.147964 403.93393 126.49111 403.93393 128.14796Z" fill-rule="nonzero"/><path fill="#000000" fill-opacity="0.0" clip-path="url(#id_0)" d="M469.15 105.582954C469.15 107.23981 467.80685 108.582954 466.15 108.582954C464.49313 108.582954 463.15 107.23981 463.15 105.582954C463.15 103.9261 464.49313 102.582954 466.15 102.582954C467.80685 102.582954 469.15 103.9261 469.15 105.582954Z" fill-rule="nonzero"/><path fill="#000000" d="M210.42188 279.15L210.42188 270.55624L211.57812 270.55624L216.09375 277.30624L216.09375 270.55624L217.1875 270.55624L217.1875 279.15L216.01562 279.15L211.5 272.4L211.5 279.15L210.42188 279.15ZM223.375 279.15L223.375 278.22812Q222.64062 279.29062 221.39062 279.29062Q220.84375 279.29062 220.35938 279.0875Q219.89062 278.86874 219.65625 278.55624Q219.42188 278.22812 219.32812 277.75937Q219.26562 277.4625 219.26562 276.775L219.26562 272.93124L220.32812 272.93124L220.32812 276.38437Q220.32812 277.19687 220.39062 277.49374Q220.48438 277.9 220.79688 278.15Q221.125 278.38437 221.60938 278.38437Q222.07812 278.38437 222.48438 278.15Q222.90625 277.9 223.07812 277.47812Q223.26562 277.05624 223.26562 276.25937L223.26562 272.93124L224.3125 272.93124L224.3125 279.15L223.375 279.15ZM226.29688 279.15L226.29688 272.93124L227.23438 272.93124L227.23438 273.80624Q227.53125 273.3375 228.01562 273.07187Q228.5 272.79062 229.125 272.79062Q229.8125 272.79062 230.25 273.07187Q230.70312 273.35312 230.875 273.86874Q231.625 272.79062 232.79688 272.79062Q233.73438 272.79062 234.21875 273.30624Q234.71875 273.80624 234.71875 274.88437L234.71875 279.15L233.67188 279.15L233.67188 275.22812Q233.67188 274.60312 233.5625 274.32187Q233.46875 274.04062 233.20312 273.86874Q232.9375 273.69687 232.5625 273.69687Q231.90625 273.69687 231.46875 274.13437Q231.04688 274.57187 231.04688 275.54062L231.04688 279.15L229.98438 279.15L229.98438 275.10312Q229.98438 274.4 229.71875 274.05624Q229.46875 273.69687 228.89062 273.69687Q228.4375 273.69687 228.0625 273.93124Q227.6875 274.16562 227.51562 274.61874Q227.34375 275.07187 227.34375 275.91562L227.34375 279.15L226.29688 279.15ZM238.26562 279.15L237.28125 279.15L237.28125 270.55624L238.34375 270.55624L238.34375 273.61874Q239.01562 272.79062 240.04688 272.79062Q240.625 272.79062 241.125 273.025Q241.64062 273.24374 241.96875 273.66562Q242.3125 274.0875 242.5 274.68124Q242.6875 275.275 242.6875 275.94687Q242.6875 277.54062 241.89062 278.41562Q241.09375 279.29062 240.0 279.29062Q238.89062 279.29062 238.26562 278.36874L238.26562 279.15ZM238.25 275.99374Q238.25 277.10312 238.5625 277.60312Q239.0625 278.41562 239.90625 278.41562Q240.59375 278.41562 241.09375 277.82187Q241.60938 277.22812 241.60938 276.025Q241.60938 274.80624 241.125 274.22812Q240.64062 273.65 239.95312 273.65Q239.26562 273.65 238.75 274.25937Q238.25 274.85312 238.25 275.99374ZM248.54688 277.15L249.64062 277.275Q249.39062 278.22812 248.6875 278.75937Q247.98438 279.29062 246.90625 279.29062Q245.54688 279.29062 244.73438 278.44687Q243.9375 277.60312 243.9375 276.0875Q243.9375 274.525 244.75 273.66562Q245.5625 272.79062 246.84375 272.79062Q248.09375 272.79062 248.875 273.63437Q249.67188 274.47812 249.67188 276.025Q249.67188 276.11874 249.67188 276.30624L245.03125 276.30624Q245.09375 277.3375 245.60938 277.88437Q246.125 278.41562 246.90625 278.41562Q247.48438 278.41562 247.89062 278.11874Q248.3125 277.80624 248.54688 277.15ZM245.09375 275.44687L248.5625 275.44687Q248.5 274.65 248.17188 274.25937Q247.65625 273.65 246.85938 273.65Q246.125 273.65 245.625 274.13437Q245.14062 274.61874 245.09375 275.44687ZM251.28125 279.15L251.28125 272.93124L252.23438 272.93124L252.23438 273.86874Q252.59375 273.2125 252.89062 273.00937Q253.20312 272.79062 253.57812 272.79062Q254.10938 272.79062 254.65625 273.11874L254.29688 274.10312Q253.90625 273.86874 253.53125 273.86874Q253.17188 273.86874 252.89062 274.0875Q252.625 274.29062 252.51562 274.66562Q252.32812 275.22812 252.32812 275.88437L252.32812 279.15L251.28125 279.15ZM257.90625 276.04062Q257.90625 274.30624 258.85938 273.47812Q259.65625 272.79062 260.8125 272.79062Q262.09375 272.79062 262.90625 273.63437Q263.73438 274.4625 263.73438 275.94687Q263.73438 277.15 263.375 277.8375Q263.01562 278.525 262.3125 278.91562Q261.625 279.29062 260.8125 279.29062Q259.51562 279.29062 258.70312 278.4625Q257.90625 277.61874 257.90625 276.04062ZM258.98438 276.04062Q258.98438 277.22812 259.5 277.82187Q260.03125 278.41562 260.8125 278.41562Q261.60938 278.41562 262.125 277.82187Q262.64062 277.22812 262.64062 276.00937Q262.64062 274.85312 262.10938 274.25937Q261.59375 273.66562 260.8125 273.66562Q260.03125 273.66562 259.5 274.25937Q258.98438 274.8375 258.98438 276.04062ZM265.54688 279.15L265.54688 273.74374L264.60938 273.74374L264.60938 272.93124L265.54688 272.93124L265.54688 272.25937Q265.54688 271.63437 265.65625 271.3375Q265.8125 270.91562 266.1875 270.66562Q266.57812 270.41562 267.26562 270.41562Q267.71875 270.41562 268.25 270.525L268.09375 271.43124Q267.76562 271.38437 267.46875 271.38437Q266.98438 271.38437 266.78125 271.5875Q266.59375 271.79062 266.59375 272.35312L266.59375 272.93124L267.8125 272.93124L267.8125 273.74374L266.59375 273.74374L266.59375 279.15L265.54688 279.15ZM271.375 279.15L271.375 270.55624L274.60938 270.55624Q275.59375 270.55624 276.1875 270.82187Q276.78125 271.0875 277.10938 271.63437Q277.45312 272.16562 277.45312 272.75937Q277.45312 273.30624 277.15625 273.79062Q276.85938 274.275 276.25 274.57187Q277.03125 274.80624 277.4375 275.36874Q277.85938 275.91562 277.85938 276.66562Q277.85938 277.25937 277.60938 277.79062Q277.35938 278.30624 276.98438 278.5875Q276.60938 278.86874 276.03125 279.00937Q275.46875 279.15 274.65625 279.15L271.375 279.15ZM272.51562 274.16562L274.375 274.16562Q275.125 274.16562 275.45312 274.07187Q275.89062 273.94687 276.10938 273.65Q276.32812 273.3375 276.32812 272.88437Q276.32812 272.4625 276.125 272.13437Q275.92188 271.80624 275.53125 271.69687Q275.15625 271.57187 274.23438 271.57187L272.51562 271.57187L272.51562 274.16562ZM272.51562 278.13437L274.65625 278.13437Q275.20312 278.13437 275.42188 278.0875Q275.82812 278.025 276.07812 277.86874Q276.34375 277.69687 276.51562 277.38437Q276.6875 277.07187 276.6875 276.66562Q276.6875 276.18124 276.4375 275.82187Q276.20312 275.4625 275.76562 275.32187Q275.32812 275.18124 274.5 275.18124L272.51562 275.18124L272.51562 278.13437ZM279.25 281.54062L279.125 280.55624Q279.46875 280.65 279.73438 280.65Q280.07812 280.65 280.28125 280.525Q280.5 280.41562 280.64062 280.2125Q280.73438 280.04062 280.96875 279.41562Q280.98438 279.3375 281.0625 279.16562L278.6875 272.93124L279.82812 272.93124L281.125 276.525Q281.375 277.2125 281.57812 277.97812Q281.76562 277.24374 282.01562 276.55624L283.34375 272.93124L284.39062 272.93124L282.03125 279.25937Q281.64062 280.275 281.4375 280.66562Q281.15625 281.19687 280.78125 281.43124Q280.42188 281.68124 279.92188 281.68124Q279.625 281.68124 279.25 281.54062ZM286.59375 278.2125L286.75 279.13437Q286.29688 279.22812 285.95312 279.22812Q285.375 279.22812 285.0625 279.05624Q284.75 278.86874 284.60938 278.57187Q284.48438 278.275 284.48438 277.32187L284.48438 273.74374L283.71875 273.74374L283.71875 272.93124L284.48438 272.93124L284.48438 271.38437L285.53125 270.75937L285.53125 272.93124L286.59375 272.93124L286.59375 273.74374L285.53125 273.74374L285.53125 277.38437Q285.53125 277.8375 285.57812 277.9625Q285.64062 278.0875 285.76562 278.16562Q285.89062 278.24374 286.125 278.24374Q286.3125 278.24374 286.59375 278.2125ZM291.54688 277.15L292.64062 277.275Q292.39062 278.22812 291.6875 278.75937Q290.98438 279.29062 289.90625 279.29062Q288.54688 279.29062 287.73438 278.44687Q286.9375 277.60312 286.9375 276.0875Q286.9375 274.525 287.75 273.66562Q288.5625 272.79062 289.84375 272.79062Q291.09375 272.79062 291.875 273.63437Q292.67188 274.47812 292.67188 276.025Q292.67188 276.11874 292.67188 276.30624L288.03125 276.30624Q288.09375 277.3375 288.60938 277.88437Q289.125 278.41562 289.90625 278.41562Q290.48438 278.41562 290.89062 278.11874Q291.3125 277.80624 291.54688 277.15ZM288.09375 275.44687L291.5625 275.44687Q291.5 274.65 291.17188 274.25937Q290.65625 273.65 289.85938 273.65Q289.125 273.65 288.625 274.13437Q288.14062 274.61874 288.09375 275.44687ZM293.875 277.29062L294.90625 277.13437Q295.0 277.75937 295.39062 278.0875Q295.79688 278.41562 296.53125 278.41562Q297.25 278.41562 297.59375 278.13437Q297.95312 277.8375 297.95312 277.43124Q297.95312 277.07187 297.64062 276.86874Q297.42188 276.72812 296.5625 276.50937Q295.40625 276.2125 294.95312 276.00937Q294.51562 275.79062 294.28125 275.41562Q294.04688 275.04062 294.04688 274.57187Q294.04688 274.16562 294.23438 273.80624Q294.42188 273.44687 294.75 273.2125Q295.0 273.04062 295.42188 272.91562Q295.84375 272.79062 296.34375 272.79062Q297.0625 272.79062 297.60938 273.00937Q298.17188 273.2125 298.4375 273.57187Q298.70312 273.93124 298.79688 274.525L297.76562 274.66562Q297.70312 274.19687 297.35938 273.93124Q297.03125 273.65 296.40625 273.65Q295.6875 273.65 295.375 273.9Q295.0625 274.13437 295.0625 274.4625Q295.0625 274.66562 295.1875 274.82187Q295.32812 274.99374 295.59375 275.10312Q295.75 275.16562 296.53125 275.36874Q297.65625 275.68124 298.09375 275.86874Q298.53125 276.05624 298.78125 276.41562Q299.03125 276.775 299.03125 277.32187Q299.03125 277.85312 298.71875 278.32187Q298.42188 278.775 297.84375 279.04062Q297.26562 279.29062 296.53125 279.29062Q295.3125 279.29062 294.67188 278.79062Q294.04688 278.275 293.875 277.29062ZM304.46875 279.15L304.46875 270.55624L305.59375 270.55624L305.59375 274.0875L310.0625 274.0875L310.0625 270.55624L311.20312 270.55624L311.20312 279.15L310.0625 279.15L310.0625 275.10312L305.59375 275.10312L305.59375 279.15L304.46875 279.15ZM317.35938 278.38437Q316.76562 278.88437 316.21875 279.0875Q315.6875 279.29062 315.0625 279.29062Q314.03125 279.29062 313.48438 278.79062Q312.9375 278.29062 312.9375 277.50937Q312.9375 277.05624 313.14062 276.68124Q313.34375 276.29062 313.6875 276.07187Q314.03125 275.8375 314.45312 275.72812Q314.75 275.63437 315.39062 275.55624Q316.65625 275.41562 317.26562 275.19687Q317.26562 274.97812 317.26562 274.93124Q317.26562 274.275 316.96875 274.00937Q316.5625 273.66562 315.76562 273.66562Q315.03125 273.66562 314.67188 273.93124Q314.3125 274.18124 314.14062 274.8375L313.10938 274.69687Q313.25 274.04062 313.57812 273.63437Q313.90625 273.22812 314.51562 273.00937Q315.125 272.79062 315.92188 272.79062Q316.71875 272.79062 317.21875 272.97812Q317.71875 273.16562 317.95312 273.44687Q318.1875 273.72812 318.28125 274.16562Q318.32812 274.43124 318.32812 275.13437L318.32812 276.54062Q318.32812 278.00937 318.39062 278.4Q318.46875 278.79062 318.67188 279.15L317.5625 279.15Q317.40625 278.82187 317.35938 278.38437ZM317.26562 276.025Q316.6875 276.25937 315.54688 276.43124Q314.89062 276.525 314.625 276.65Q314.35938 276.75937 314.20312 276.97812Q314.0625 277.19687 314.0625 277.47812Q314.0625 277.9 314.375 278.18124Q314.70312 278.4625 315.3125 278.4625Q315.92188 278.4625 316.39062 278.19687Q316.875 277.93124 317.09375 277.4625Q317.26562 277.10312 317.26562 276.41562L317.26562 276.025ZM319.875 277.29062L320.90625 277.13437Q321.0 277.75937 321.39062 278.0875Q321.79688 278.41562 322.53125 278.41562Q323.25 278.41562 323.59375 278.13437Q323.95312 277.8375 323.95312 277.43124Q323.95312 277.07187 323.64062 276.86874Q323.42188 276.72812 322.5625 276.50937Q321.40625 276.2125 320.95312 276.00937Q320.51562 275.79062 320.28125 275.41562Q320.04688 275.04062 320.04688 274.57187Q320.04688 274.16562 320.23438 273.80624Q320.42188 273.44687 320.75 273.2125Q321.0 273.04062 321.42188 272.91562Q321.84375 272.79062 322.34375 272.79062Q323.0625 272.79062 323.60938 273.00937Q324.17188 273.2125 324.4375 273.57187Q324.70312 273.93124 324.79688 274.525L323.76562 274.66562Q323.70312 274.19687 323.35938 273.93124Q323.03125 273.65 322.40625 273.65Q321.6875 273.65 321.375 273.9Q321.0625 274.13437 321.0625 274.4625Q321.0625 274.66562 321.1875 274.82187Q321.32812 274.99374 321.59375 275.10312Q321.75 275.16562 322.53125 275.36874Q323.65625 275.68124 324.09375 275.86874Q324.53125 276.05624 324.78125 276.41562Q325.03125 276.775 325.03125 277.32187Q325.03125 277.85312 324.71875 278.32187Q324.42188 278.775 323.84375 279.04062Q323.26562 279.29062 322.53125 279.29062Q321.3125 279.29062 320.67188 278.79062Q320.04688 278.275 319.875 277.29062ZM327.29688 279.15L327.29688 270.55624L328.34375 270.55624L328.34375 273.63437Q329.07812 272.79062 330.20312 272.79062Q330.90625 272.79062 331.40625 273.07187Q331.92188 273.3375 332.14062 273.82187Q332.35938 274.29062 332.35938 275.2125L332.35938 279.15L331.3125 279.15L331.3125 275.2125Q331.3125 274.41562 330.96875 274.05624Q330.625 273.69687 330.0 273.69687Q329.53125 273.69687 329.10938 273.94687Q328.70312 274.18124 328.51562 274.60312Q328.34375 275.00937 328.34375 275.74374L328.34375 279.15L327.29688 279.15ZM338.54688 277.15L339.64062 277.275Q339.39062 278.22812 338.6875 278.75937Q337.98438 279.29062 336.90625 279.29062Q335.54688 279.29062 334.73438 278.44687Q333.9375 277.60312 333.9375 276.0875Q333.9375 274.525 334.75 273.66562Q335.5625 272.79062 336.84375 272.79062Q338.09375 272.79062 338.875 273.63437Q339.67188 274.47812 339.67188 276.025Q339.67188 276.11874 339.67188 276.30624L335.03125 276.30624Q335.09375 277.3375 335.60938 277.88437Q336.125 278.41562 336.90625 278.41562Q337.48438 278.41562 337.89062 278.11874Q338.3125 277.80624 338.54688 277.15ZM335.09375 275.44687L338.5625 275.44687Q338.5 274.65 338.17188 274.25937Q337.65625 273.65 336.85938 273.65Q336.125 273.65 335.625 274.13437Q335.14062 274.61874 335.09375 275.44687ZM345.32812 279.15L345.32812 278.36874Q344.73438 279.29062 343.59375 279.29062Q342.84375 279.29062 342.21875 278.88437Q341.59375 278.4625 341.25 277.72812Q340.90625 276.99374 340.90625 276.04062Q340.90625 275.11874 341.21875 274.35312Q341.53125 273.5875 342.15625 273.19687Q342.78125 272.79062 343.54688 272.79062Q344.10938 272.79062 344.54688 273.025Q344.98438 273.25937 345.26562 273.63437L345.26562 270.55624L346.3125 270.55624L346.3125 279.15L345.32812 279.15ZM342.0 276.04062Q342.0 277.24374 342.5 277.8375Q343.0 278.41562 343.6875 278.41562Q344.375 278.41562 344.85938 277.85312Q345.34375 277.29062 345.34375 276.13437Q345.34375 274.85312 344.84375 274.25937Q344.35938 273.66562 343.64062 273.66562Q342.9375 273.66562 342.46875 274.24374Q342.0 274.80624 342.0 276.04062Z" fill-rule="nonzero"/><path fill="#000000" d="M25.849995 198.60312L19.631245 198.60312L19.631245 197.66562L20.506245 197.66562Q19.49062 196.97812 19.49062 195.68124Q19.49062 195.11874 19.693745 194.65Q19.89687 194.16562 20.224995 193.93124Q20.55312 193.69687 20.99062 193.60312Q21.287495 193.55624 22.02187 193.55624L25.849995 193.55624L25.849995 194.60312L22.068745 194.60312Q21.412495 194.60312 21.099995 194.72812Q20.787495 194.85312 20.599995 195.16562Q20.39687 195.47812 20.39687 195.9Q20.39687 196.57187 20.83437 197.07187Q21.256245 197.55624 22.443745 197.55624L25.849995 197.55624L25.849995 198.60312ZM25.08437 187.54062Q25.58437 188.13437 25.787495 188.68124Q25.99062 189.2125 25.99062 189.8375Q25.99062 190.86874 25.49062 191.41562Q24.99062 191.9625 24.20937 191.9625Q23.756245 191.9625 23.381245 191.75937Q22.99062 191.55624 22.77187 191.2125Q22.537495 190.86874 22.42812 190.44687Q22.33437 190.15 22.256245 189.50937Q22.11562 188.24374 21.89687 187.63437Q21.67812 187.63437 21.631245 187.63437Q20.974995 187.63437 20.70937 187.93124Q20.36562 188.3375 20.36562 189.13437Q20.36562 189.86874 20.631245 190.22812Q20.881245 190.5875 21.537495 190.75937L21.39687 191.79062Q20.74062 191.65 20.33437 191.32187Q19.92812 190.99374 19.70937 190.38437Q19.49062 189.775 19.49062 188.97812Q19.49062 188.18124 19.67812 187.68124Q19.86562 187.18124 20.14687 186.94687Q20.42812 186.7125 20.86562 186.61874Q21.131245 186.57187 21.83437 186.57187L23.24062 186.57187Q24.70937 186.57187 25.099995 186.50937Q25.49062 186.43124 25.849995 186.22812L25.849995 187.3375Q25.52187 187.49374 25.08437 187.54062ZM22.724995 187.63437Q22.95937 188.2125 23.131245 189.35312Q23.224995 190.00937 23.349995 190.275Q23.45937 190.54062 23.67812 190.69687Q23.89687 190.8375 24.17812 190.8375Q24.599995 190.8375 24.881245 190.525Q25.162495 190.19687 25.162495 189.5875Q25.162495 188.97812 24.89687 188.50937Q24.631245 188.025 24.162495 187.80624Q23.80312 187.63437 23.11562 187.63437L22.724995 187.63437ZM25.849995 184.60312L19.631245 184.60312L19.631245 183.66562L20.506245 183.66562Q19.49062 182.97812 19.49062 181.68124Q19.49062 181.11874 19.693745 180.65Q19.89687 180.16562 20.224995 179.93124Q20.55312 179.69687 20.99062 179.60312Q21.287495 179.55624 22.02187 179.55624L25.849995 179.55624L25.849995 180.60312L22.068745 180.60312Q21.412495 180.60312 21.099995 180.72812Q20.787495 180.85312 20.599995 181.16562Q20.39687 181.47812 20.39687 181.9Q20.39687 182.57187 20.83437 183.07187Q21.256245 183.55624 22.443745 183.55624L25.849995 183.55624L25.849995 184.60312ZM22.74062 177.99374Q21.006245 177.99374 20.17812 177.04062Q19.49062 176.24374 19.49062 175.0875Q19.49062 173.80624 20.33437 172.99374Q21.162495 172.16562 22.64687 172.16562Q23.849995 172.16562 24.537495 172.525Q25.224995 172.88437 25.61562 173.5875Q25.99062 174.275 25.99062 175.0875Q25.99062 176.38437 25.162495 177.19687Q24.318745 177.99374 22.74062 177.99374ZM22.74062 176.91562Q23.92812 176.91562 24.52187 176.4Q25.11562 175.86874 25.11562 175.0875Q25.11562 174.29062 24.52187 173.775Q23.92812 173.25937 22.70937 173.25937Q21.55312 173.25937 20.95937 173.79062Q20.36562 174.30624 20.36562 175.0875Q20.36562 175.86874 20.95937 176.4Q21.537495 176.91562 22.74062 176.91562ZM23.99062 171.025L23.83437 169.99374Q24.45937 169.9 24.787495 169.50937Q25.11562 169.10312 25.11562 168.36874Q25.11562 167.65 24.83437 167.30624Q24.537495 166.94687 24.131245 166.94687Q23.77187 166.94687 23.568745 167.25937Q23.42812 167.47812 23.20937 168.3375Q22.912495 169.49374 22.70937 169.94687Q22.49062 170.38437 22.11562 170.61874Q21.74062 170.85312 21.27187 170.85312Q20.86562 170.85312 20.506245 170.66562Q20.14687 170.47812 19.912495 170.15Q19.74062 169.9 19.61562 169.47812Q19.49062 169.05624 19.49062 168.55624Q19.49062 167.8375 19.70937 167.29062Q19.912495 166.72812 20.27187 166.4625Q20.631245 166.19687 21.224995 166.10312L21.36562 167.13437Q20.89687 167.19687 20.631245 167.54062Q20.349995 167.86874 20.349995 168.49374Q20.349995 169.2125 20.599995 169.525Q20.83437 169.8375 21.162495 169.8375Q21.36562 169.8375 21.52187 169.7125Q21.693745 169.57187 21.80312 169.30624Q21.86562 169.15 22.068745 168.36874Q22.381245 167.24374 22.568745 166.80624Q22.756245 166.36874 23.11562 166.11874Q23.474995 165.86874 24.02187 165.86874Q24.55312 165.86874 25.02187 166.18124Q25.474995 166.47812 25.74062 167.05624Q25.99062 167.63437 25.99062 168.36874Q25.99062 169.5875 25.49062 170.22812Q24.974995 170.85312 23.99062 171.025ZM23.849995 159.35312L23.974995 158.25937Q24.92812 158.50937 25.45937 159.2125Q25.99062 159.91562 25.99062 160.99374Q25.99062 162.35312 25.14687 163.16562Q24.30312 163.9625 22.787495 163.9625Q21.224995 163.9625 20.36562 163.15Q19.49062 162.3375 19.49062 161.05624Q19.49062 159.80624 20.33437 159.025Q21.17812 158.22812 22.724995 158.22812Q22.818745 158.22812 23.006245 158.22812L23.006245 162.86874Q24.037495 162.80624 24.58437 162.29062Q25.11562 161.775 25.11562 160.99374Q25.11562 160.41562 24.818745 160.00937Q24.506245 159.5875 23.849995 159.35312ZM22.14687 162.80624L22.14687 159.3375Q21.349995 159.4 20.95937 159.72812Q20.349995 160.24374 20.349995 161.04062Q20.349995 161.775 20.83437 162.275Q21.318745 162.75937 22.14687 162.80624ZM23.568745 152.54062L23.70937 151.50937Q24.77187 151.68124 25.381245 152.38437Q25.99062 153.0875 25.99062 154.10312Q25.99062 155.38437 25.162495 156.16562Q24.318745 156.93124 22.756245 156.93124Q21.756245 156.93124 21.006245 156.60312Q20.24062 156.25937 19.86562 155.5875Q19.49062 154.9 19.49062 154.0875Q19.49062 153.0875 20.006245 152.44687Q20.506245 151.79062 21.45937 151.60312L21.61562 152.63437Q20.99062 152.775 20.67812 153.15Q20.349995 153.525 20.349995 154.05624Q20.349995 154.85312 20.92812 155.35312Q21.49062 155.85312 22.724995 155.85312Q23.99062 155.85312 24.55312 155.36874Q25.11562 154.88437 25.11562 154.11874Q25.11562 153.49374 24.74062 153.0875Q24.36562 152.66562 23.568745 152.54062ZM22.74062 150.99374Q21.006245 150.99374 20.17812 150.04062Q19.49062 149.24374 19.49062 148.0875Q19.49062 146.80624 20.33437 145.99374Q21.162495 145.16562 22.64687 145.16562Q23.849995 145.16562 24.537495 145.525Q25.224995 145.88437 25.61562 146.5875Q25.99062 147.275 25.99062 148.0875Q25.99062 149.38437 25.162495 150.19687Q24.318745 150.99374 22.74062 150.99374ZM22.74062 149.91562Q23.92812 149.91562 24.52187 149.4Q25.11562 148.86874 25.11562 148.0875Q25.11562 147.29062 24.52187 146.775Q23.92812 146.25937 22.70937 146.25937Q21.55312 146.25937 20.95937 146.79062Q20.36562 147.30624 20.36562 148.0875Q20.36562 148.86874 20.95937 149.4Q21.537495 149.91562 22.74062 149.91562ZM25.849995 143.60312L19.631245 143.60312L19.631245 142.66562L20.506245 142.66562Q19.49062 141.97812 19.49062 140.68124Q19.49062 140.11874 19.693745 139.65Q19.89687 139.16562 20.224995 138.93124Q20.55312 138.69687 20.99062 138.60312Q21.287495 138.55624 22.02187 138.55624L25.849995 138.55624L25.849995 139.60312L22.068745 139.60312Q21.412495 139.60312 21.099995 139.72812Q20.787495 139.85312 20.599995 140.16562Q20.39687 140.47812 20.39687 140.9Q20.39687 141.57187 20.83437 142.07187Q21.256245 142.55624 22.443745 142.55624L25.849995 142.55624L25.849995 143.60312ZM25.849995 132.57187L25.068745 132.57187Q25.99062 133.16562 25.99062 134.30624Q25.99062 135.05624 25.58437 135.68124Q25.162495 136.30624 24.42812 136.65Q23.693745 136.99374 22.74062 136.99374Q21.818745 136.99374 21.05312 136.68124Q20.287495 136.36874 19.89687 135.74374Q19.49062 135.11874 19.49062 134.35312Q19.49062 133.79062 19.724995 133.35312Q19.95937 132.91562 20.33437 132.63437L17.256245 132.63437L17.256245 131.5875L25.849995 131.5875L25.849995 132.57187ZM22.74062 135.9Q23.943745 135.9 24.537495 135.4Q25.11562 134.9 25.11562 134.2125Q25.11562 133.525 24.55312 133.04062Q23.99062 132.55624 22.83437 132.55624Q21.55312 132.55624 20.95937 133.05624Q20.36562 133.54062 20.36562 134.25937Q20.36562 134.9625 20.943745 135.43124Q21.506245 135.9 22.74062 135.9ZM23.99062 130.025L23.83437 128.99374Q24.45937 128.9 24.787495 128.50937Q25.11562 128.10312 25.11562 127.368744Q25.11562 126.649994 24.83437 126.306244Q24.537495 125.94687 24.131245 125.94687Q23.77187 125.94687 23.568745 126.25937Q23.42812 126.47812 23.20937 127.337494Q22.912495 128.49374 22.70937 128.94687Q22.49062 129.38437 22.11562 129.61874Q21.74062 129.85312 21.27187 129.85312Q20.86562 129.85312 20.506245 129.66562Q20.14687 129.47812 19.912495 129.15Q19.74062 128.9 19.61562 128.47812Q19.49062 128.05624 19.49062 127.556244Q19.49062 126.837494 19.70937 126.29062Q19.912495 125.72812 20.27187 125.462494Q20.631245 125.19687 21.224995 125.10312L21.36562 126.13437Q20.89687 126.19687 20.631245 126.54062Q20.349995 126.868744 20.349995 127.493744Q20.349995 128.2125 20.599995 128.525Q20.83437 128.8375 21.162495 128.8375Q21.36562 128.8375 21.52187 128.7125Q21.693745 128.57187 21.80312 128.30624Q21.86562 128.15 22.068745 127.368744Q22.381245 126.243744 22.568745 125.806244Q22.756245 125.368744 23.11562 125.118744Q23.474995 124.868744 24.02187 124.868744Q24.55312 124.868744 25.02187 125.181244Q25.474995 125.47812 25.74062 126.056244Q25.99062 126.63437 25.99062 127.368744Q25.99062 128.5875 25.49062 129.22812Q24.974995 129.85312 23.99062 130.025Z" fill-rule="nonzero"/><path fill="#000000" d="M61.35 229.91562Q61.35 228.38437 61.6625 227.4625Q61.975 226.525 62.584373 226.025Q63.209373 225.525 64.14687 225.525Q64.83437 225.525 65.35 225.80624Q65.88125 226.0875 66.225 226.61874Q66.56875 227.13437 66.75625 227.88437Q66.94375 228.63437 66.94375 229.91562Q66.94375 231.43124 66.63125 232.35312Q66.33437 233.275 65.70937 233.79062Q65.1 234.29062 64.14687 234.29062Q62.9125 234.29062 62.19375 233.4Q61.35 232.3375 61.35 229.91562ZM62.428123 229.91562Q62.428123 232.025 62.928123 232.72812Q63.428123 233.43124 64.14687 233.43124Q64.88125 233.43124 65.36562 232.72812Q65.86562 232.025 65.86562 229.91562Q65.86562 227.79062 65.36562 227.10312Q64.88125 226.4 64.13125 226.4Q63.4125 226.4 62.975 227.00937Q62.428123 227.79062 62.428123 229.91562ZM68.94375 234.15L68.94375 232.94687L70.14687 232.94687L70.14687 234.15L68.94375 234.15ZM71.35 229.91562Q71.35 228.38437 71.6625 227.4625Q71.975 226.525 72.58437 226.025Q73.20937 225.525 74.14687 225.525Q74.83437 225.525 75.35 225.80624Q75.88125 226.0875 76.225 226.61874Q76.56875 227.13437 76.75625 227.88437Q76.94375 228.63437 76.94375 229.91562Q76.94375 231.43124 76.63125 232.35312Q76.33437 233.275 75.70937 233.79062Q75.1 234.29062 74.14687 234.29062Q72.9125 234.29062 72.19375 233.4Q71.35 232.3375 71.35 229.91562ZM72.42812 229.91562Q72.42812 232.025 72.92812 232.72812Q73.42812 233.43124 74.14687 233.43124Q74.88125 233.43124 75.36562 232.72812Q75.86562 232.025 75.86562 229.91562Q75.86562 227.79062 75.36562 227.10312Q74.88125 226.4 74.13125 226.4Q73.4125 226.4 72.975 227.00937Q72.42812 227.79062 72.42812 229.91562ZM78.35 229.91562Q78.35 228.38437 78.6625 227.4625Q78.975 226.525 79.58437 226.025Q80.20937 225.525 81.14687 225.525Q81.83437 225.525 82.35 225.80624Q82.88125 226.0875 83.225 226.61874Q83.56875 227.13437 83.75625 227.88437Q83.94375 228.63437 83.94375 229.91562Q83.94375 231.43124 83.63125 232.35312Q83.33437 233.275 82.70937 233.79062Q82.1 234.29062 81.14687 234.29062Q79.9125 234.29062 79.19375 233.4Q78.35 232.3375 78.35 229.91562ZM79.42812 229.91562Q79.42812 232.025 79.92812 232.72812Q80.42812 233.43124 81.14687 233.43124Q81.88125 233.43124 82.36562 232.72812Q82.86562 232.025 82.86562 229.91562Q82.86562 227.79062 82.36562 227.10312Q81.88125 226.4 81.13125 226.4Q80.4125 226.4 79.975 227.00937Q79.42812 227.79062 79.42812 229.91562Z" fill-rule="nonzero"/><path fill="#000000" d="M59.896873 203.03438L59.896873 204.05L54.209373 204.05Q54.209373 203.675 54.334373 203.31563Q54.553123 202.7375 55.021873 202.175Q55.50625 201.6125 56.4125 200.87813Q57.81875 199.72188 58.303123 199.05Q58.803123 198.37813 58.803123 197.78438Q58.803123 197.15938 58.35 196.7375Q57.896873 196.3 57.178123 196.3Q56.4125 196.3 55.959373 196.75313Q55.50625 197.20625 55.490623 198.01875L54.4125 197.90938Q54.521873 196.69063 55.240623 196.06563Q55.975 195.425 57.209373 195.425Q58.44375 195.425 59.1625 196.1125Q59.88125 196.8 59.88125 197.81563Q59.88125 198.33125 59.6625 198.83125Q59.459373 199.31563 58.959373 199.87813Q58.475 200.425 57.35 201.37813Q56.396873 202.175 56.115623 202.47188Q55.85 202.75313 55.678123 203.03438L59.896873 203.03438ZM61.35 201.8L62.459373 201.70625Q62.584373 202.51875 63.021873 202.925Q63.475 203.33125 64.11562 203.33125Q64.86562 203.33125 65.39687 202.75313Q65.92812 202.175 65.92812 201.2375Q65.92812 200.33125 65.4125 199.81563Q64.9125 199.28438 64.08437 199.28438Q63.584373 199.28438 63.1625 199.51875Q62.75625 199.75313 62.521873 200.1125L61.5375 199.9875L62.365623 195.58125L66.64687 195.58125L66.64687 196.58125L63.209373 196.58125L62.75625 198.89375Q63.521873 198.34688 64.36562 198.34688Q65.49062 198.34688 66.25625 199.12813Q67.0375 199.90938 67.0375 201.14375Q67.0375 202.3 66.36562 203.15938Q65.5375 204.19063 64.11562 204.19063Q62.94375 204.19063 62.19375 203.53438Q61.459373 202.87813 61.35 201.8ZM68.94375 204.05L68.94375 202.84688L70.14687 202.84688L70.14687 204.05L68.94375 204.05ZM71.35 199.81563Q71.35 198.28438 71.6625 197.3625Q71.975 196.425 72.58437 195.925Q73.20937 195.425 74.14687 195.425Q74.83437 195.425 75.35 195.70625Q75.88125 195.9875 76.225 196.51875Q76.56875 197.03438 76.75625 197.78438Q76.94375 198.53438 76.94375 199.81563Q76.94375 201.33125 76.63125 202.25313Q76.33437 203.175 75.70937 203.69063Q75.1 204.19063 74.14687 204.19063Q72.9125 204.19063 72.19375 203.3Q71.35 202.2375 71.35 199.81563ZM72.42812 199.81563Q72.42812 201.925 72.92812 202.62813Q73.42812 203.33125 74.14687 203.33125Q74.88125 203.33125 75.36562 202.62813Q75.86562 201.925 75.86562 199.81563Q75.86562 197.69063 75.36562 197.00313Q74.88125 196.3 74.13125 196.3Q73.4125 196.3 72.975 196.90938Q72.42812 197.69063 72.42812 199.81563ZM78.35 199.81563Q78.35 198.28438 78.6625 197.3625Q78.975 196.425 79.58437 195.925Q80.20937 195.425 81.14687 195.425Q81.83437 195.425 82.35 195.70625Q82.88125 195.9875 83.225 196.51875Q83.56875 197.03438 83.75625 197.78438Q83.94375 198.53438 83.94375 199.81563Q83.94375 201.33125 83.63125 202.25313Q83.33437 203.175 82.70937 203.69063Q82.1 204.19063 81.14687 204.19063Q79.9125 204.19063 79.19375 203.3Q78.35 202.2375 78.35 199.81563ZM79.42812 199.81563Q79.42812 201.925 79.92812 202.62813Q80.42812 203.33125 81.14687 203.33125Q81.88125 203.33125 82.36562 202.62813Q82.86562 201.925 82.86562 199.81563Q82.86562 197.69063 82.36562 197.00313Q81.88125 196.3 81.13125 196.3Q80.4125 196.3 79.975 196.90938Q79.42812 197.69063 79.42812 199.81563Z" fill-rule="nonzero"/><path fill="#000000" d="M54.35 171.7L55.459373 171.60625Q55.584373 172.41875 56.021873 172.825Q56.475 173.23125 57.115623 173.23125Q57.865623 173.23125 58.396873 172.65312Q58.928123 172.075 58.928123 171.1375Q58.928123 170.23125 58.4125 169.71562Q57.9125 169.18437 57.084373 169.18437Q56.584373 169.18437 56.1625 169.41875Q55.75625 169.65312 55.521873 170.0125L54.5375 169.8875L55.365623 165.48125L59.646873 165.48125L59.646873 166.48125L56.209373 166.48125L55.75625 168.79375Q56.521873 168.24687 57.365623 168.24687Q58.490623 168.24687 59.25625 169.02812Q60.0375 169.80937 60.0375 171.04375Q60.0375 172.2 59.365623 173.05937Q58.5375 174.09062 57.115623 174.09062Q55.94375 174.09062 55.19375 173.43437Q54.459373 172.77812 54.35 171.7ZM61.35 169.71562Q61.35 168.18437 61.6625 167.2625Q61.975 166.325 62.584373 165.825Q63.209373 165.325 64.14687 165.325Q64.83437 165.325 65.35 165.60625Q65.88125 165.8875 66.225 166.41875Q66.56875 166.93437 66.75625 167.68437Q66.94375 168.43437 66.94375 169.71562Q66.94375 171.23125 66.63125 172.15312Q66.33437 173.075 65.70937 173.59062Q65.1 174.09062 64.14687 174.09062Q62.9125 174.09062 62.19375 173.2Q61.35 172.1375 61.35 169.71562ZM62.428123 169.71562Q62.428123 171.825 62.928123 172.52812Q63.428123 173.23125 64.14687 173.23125Q64.88125 173.23125 65.36562 172.52812Q65.86562 171.825 65.86562 169.71562Q65.86562 167.59062 65.36562 166.90312Q64.88125 166.2 64.13125 166.2Q63.4125 166.2 62.975 166.80937Q62.428123 167.59062 62.428123 169.71562ZM68.94375 173.95L68.94375 172.74687L70.14687 172.74687L70.14687 173.95L68.94375 173.95ZM71.35 169.71562Q71.35 168.18437 71.6625 167.2625Q71.975 166.325 72.58437 165.825Q73.20937 165.325 74.14687 165.325Q74.83437 165.325 75.35 165.60625Q75.88125 165.8875 76.225 166.41875Q76.56875 166.93437 76.75625 167.68437Q76.94375 168.43437 76.94375 169.71562Q76.94375 171.23125 76.63125 172.15312Q76.33437 173.075 75.70937 173.59062Q75.1 174.09062 74.14687 174.09062Q72.9125 174.09062 72.19375 173.2Q71.35 172.1375 71.35 169.71562ZM72.42812 169.71562Q72.42812 171.825 72.92812 172.52812Q73.42812 173.23125 74.14687 173.23125Q74.88125 173.23125 75.36562 172.52812Q75.86562 171.825 75.86562 169.71562Q75.86562 167.59062 75.36562 166.90312Q74.88125 166.2 74.13125 166.2Q73.4125 166.2 72.975 166.80937Q72.42812 167.59062 72.42812 169.71562ZM78.35 169.71562Q78.35 168.18437 78.6625 167.2625Q78.975 166.325 79.58437 165.825Q80.20937 165.325 81.14687 165.325Q81.83437 165.325 82.35 165.60625Q82.88125 165.8875 83.225 166.41875Q83.56875 166.93437 83.75625 167.68437Q83.94375 168.43437 83.94375 169.71562Q83.94375 171.23125 83.63125 172.15312Q83.33437 173.075 82.70937 173.59062Q82.1 174.09062 81.14687 174.09062Q79.9125 174.09062 79.19375 173.2Q78.35 172.1375 78.35 169.71562ZM79.42812 169.71562Q79.42812 171.825 79.92812 172.52812Q80.42812 173.23125 81.14687 173.23125Q81.88125 173.23125 82.36562 172.52812Q82.86562 171.825 82.86562 169.71562Q82.86562 167.59062 82.36562 166.90312Q81.88125 166.2 81.13125 166.2Q80.4125 166.2 79.975 166.80937Q79.42812 167.59062 79.42812 169.71562Z" fill-rule="nonzero"/><path fill="#000000" d="M54.4125 136.38126L54.4125 135.36563L59.975 135.36563L59.975 136.19376Q59.1625 137.06876 58.35 138.52188Q57.553123 139.95938 57.115623 141.49063Q56.7875 142.56876 56.709373 143.85L55.615623 143.85Q55.63125 142.83438 56.00625 141.39688Q56.396873 139.95938 57.1 138.63126Q57.81875 137.30313 58.63125 136.38126L54.4125 136.38126ZM61.35 141.6L62.459373 141.50626Q62.584373 142.31876 63.021873 142.725Q63.475 143.13126 64.11562 143.13126Q64.86562 143.13126 65.39687 142.55313Q65.92812 141.975 65.92812 141.0375Q65.92812 140.13126 65.4125 139.61563Q64.9125 139.08438 64.08437 139.08438Q63.584373 139.08438 63.1625 139.31876Q62.75625 139.55313 62.521873 139.9125L61.5375 139.7875L62.365623 135.38126L66.64687 135.38126L66.64687 136.38126L63.209373 136.38126L62.75625 138.69376Q63.521873 138.14688 64.36562 138.14688Q65.49062 138.14688 66.25625 138.92813Q67.0375 139.70938 67.0375 140.94376Q67.0375 142.1 66.36562 142.95938Q65.5375 143.99063 64.11562 143.99063Q62.94375 143.99063 62.19375 143.33438Q61.459373 142.67813 61.35 141.6ZM68.94375 143.85L68.94375 142.64688L70.14687 142.64688L70.14687 143.85L68.94375 143.85ZM71.35 139.61563Q71.35 138.08438 71.6625 137.1625Q71.975 136.225 72.58437 135.725Q73.20937 135.225 74.14687 135.225Q74.83437 135.225 75.35 135.50626Q75.88125 135.7875 76.225 136.31876Q76.56875 136.83438 76.75625 137.58438Q76.94375 138.33438 76.94375 139.61563Q76.94375 141.13126 76.63125 142.05313Q76.33437 142.975 75.70937 143.49063Q75.1 143.99063 74.14687 143.99063Q72.9125 143.99063 72.19375 143.1Q71.35 142.0375 71.35 139.61563ZM72.42812 139.61563Q72.42812 141.725 72.92812 142.42813Q73.42812 143.13126 74.14687 143.13126Q74.88125 143.13126 75.36562 142.42813Q75.86562 141.725 75.86562 139.61563Q75.86562 137.49063 75.36562 136.80313Q74.88125 136.1 74.13125 136.1Q73.4125 136.1 72.975 136.70938Q72.42812 137.49063 72.42812 139.61563ZM78.35 139.61563Q78.35 138.08438 78.6625 137.1625Q78.975 136.225 79.58437 135.725Q80.20937 135.225 81.14687 135.225Q81.83437 135.225 82.35 135.50626Q82.88125 135.7875 83.225 136.31876Q83.56875 136.83438 83.75625 137.58438Q83.94375 138.33438 83.94375 139.61563Q83.94375 141.13126 83.63125 142.05313Q83.33437 142.975 82.70937 143.49063Q82.1 143.99063 81.14687 143.99063Q79.9125 143.99063 79.19375 143.1Q78.35 142.0375 78.35 139.61563ZM79.42812 139.61563Q79.42812 141.725 79.92812 142.42813Q80.42812 143.13126 81.14687 143.13126Q81.88125 143.13126 82.36562 142.42813Q82.86562 141.725 82.86562 139.61563Q82.86562 137.49063 82.36562 136.80313Q81.88125 136.1 81.13125 136.1Q80.4125 136.1 79.975 136.70938Q79.42812 137.49063 79.42812 139.61563Z" fill-rule="nonzero"/><path fill="#000000" d="M51.31875 113.75L50.271873 113.75L50.271873 107.03125Q49.88125 107.390625 49.25625 107.765625Q48.646873 108.125 48.1625 108.296875L48.1625 107.28125Q49.0375 106.859375 49.69375 106.28125Q50.365623 105.6875 50.646873 105.125L51.31875 105.125L51.31875 113.75ZM54.35 109.515625Q54.35 107.984375 54.6625 107.0625Q54.975 106.125 55.584373 105.625Q56.209373 105.125 57.146873 105.125Q57.834373 105.125 58.35 105.40625Q58.88125 105.6875 59.225 106.21875Q59.56875 106.734375 59.75625 107.484375Q59.94375 108.234375 59.94375 109.515625Q59.94375 111.03125 59.63125 111.953125Q59.334373 112.875 58.709373 113.390625Q58.1 113.890625 57.146873 113.890625Q55.9125 113.890625 55.19375 113.0Q54.35 111.9375 54.35 109.515625ZM55.428123 109.515625Q55.428123 111.625 55.928123 112.328125Q56.428123 113.03125 57.146873 113.03125Q57.88125 113.03125 58.365623 112.328125Q58.865623 111.625 58.865623 109.515625Q58.865623 107.390625 58.365623 106.703125Q57.88125 106.0 57.13125 106.0Q56.4125 106.0 55.975 106.609375Q55.428123 107.390625 55.428123 109.515625ZM61.35 109.515625Q61.35 107.984375 61.6625 107.0625Q61.975 106.125 62.584373 105.625Q63.209373 105.125 64.14687 105.125Q64.83437 105.125 65.35 105.40625Q65.88125 105.6875 66.225 106.21875Q66.56875 106.734375 66.75625 107.484375Q66.94375 108.234375 66.94375 109.515625Q66.94375 111.03125 66.63125 111.953125Q66.33437 112.875 65.70937 113.390625Q65.1 113.890625 64.14687 113.890625Q62.9125 113.890625 62.19375 113.0Q61.35 111.9375 61.35 109.515625ZM62.428123 109.515625Q62.428123 111.625 62.928123 112.328125Q63.428123 113.03125 64.14687 113.03125Q64.88125 113.03125 65.36562 112.328125Q65.86562 111.625 65.86562 109.515625Q65.86562 107.390625 65.36562 106.703125Q64.88125 106.0 64.13125 106.0Q63.4125 106.0 62.975 106.609375Q62.428123 107.390625 62.428123 109.515625ZM68.94375 113.75L68.94375 112.546875L70.14687 112.546875L70.14687 113.75L68.94375 113.75ZM71.35 109.515625Q71.35 107.984375 71.6625 107.0625Q71.975 106.125 72.58437 105.625Q73.20937 105.125 74.14687 105.125Q74.83437 105.125 75.35 105.40625Q75.88125 105.6875 76.225 106.21875Q76.56875 106.734375 76.75625 107.484375Q76.94375 108.234375 76.94375 109.515625Q76.94375 111.03125 76.63125 111.953125Q76.33437 112.875 75.70937 113.390625Q75.1 113.890625 74.14687 113.890625Q72.9125 113.890625 72.19375 113.0Q71.35 111.9375 71.35 109.515625ZM72.42812 109.515625Q72.42812 111.625 72.92812 112.328125Q73.42812 113.03125 74.14687 113.03125Q74.88125 113.03125 75.36562 112.328125Q75.86562 111.625 75.86562 109.515625Q75.86562 107.390625 75.36562 106.703125Q74.88125 106.0 74.13125 106.0Q73.4125 106.0 72.975 106.609375Q72.42812 107.390625 72.42812 109.515625ZM78.35 109.515625Q78.35 107.984375 78.6625 107.0625Q78.975 106.125 79.58437 105.625Q80.20937 105.125 81.14687 105.125Q81.83437 105.125 82.35 105.40625Q82.88125 105.6875 83.225 106.21875Q83.56875 106.734375 83.75625 107.484375Q83.94375 108.234375 83.94375 109.515625Q83.94375 111.03125 83.63125 111.953125Q83.33437 112.875 82.70937 113.390625Q82.1 113.890625 81.14687 113.890625Q79.9125 113.890625 79.19375 113.0Q78.35 111.9375 78.35 109.515625ZM79.42812 109.515625Q79.42812 111.625 79.92812 112.328125Q80.42812 113.03125 81.14687 113.03125Q81.88125 113.03125 82.36562 112.328125Q82.86562 111.625 82.86562 109.515625Q82.86562 107.390625 82.36562 106.703125Q81.88125 106.0 81.13125 106.0Q80.4125 106.0 79.975 106.609375Q79.42812 107.390625 79.42812 109.515625Z" fill-rule="nonzero"/><path fill="#000000" d="M51.31875 83.65L50.271873 83.65L50.271873 76.93125Q49.88125 77.29063 49.25625 77.66563Q48.646873 78.025 48.1625 78.19688L48.1625 77.18125Q49.0375 76.75938 49.69375 76.18125Q50.365623 75.5875 50.646873 75.025L51.31875 75.025L51.31875 83.65ZM59.896873 82.63438L59.896873 83.65L54.209373 83.65Q54.209373 83.275 54.334373 82.91563Q54.553123 82.3375 55.021873 81.775Q55.50625 81.2125 56.4125 80.47813Q57.81875 79.32188 58.303123 78.65Q58.803123 77.97813 58.803123 77.38438Q58.803123 76.75938 58.35 76.3375Q57.896873 75.9 57.178123 75.9Q56.4125 75.9 55.959373 76.35313Q55.50625 76.80625 55.490623 77.61875L54.4125 77.50938Q54.521873 76.29063 55.240623 75.66563Q55.975 75.025 57.209373 75.025Q58.44375 75.025 59.1625 75.7125Q59.88125 76.4 59.88125 77.41563Q59.88125 77.93125 59.6625 78.43125Q59.459373 78.91563 58.959373 79.47813Q58.475 80.025 57.35 80.97813Q56.396873 81.775 56.115623 82.07188Q55.85 82.35313 55.678123 82.63438L59.896873 82.63438ZM61.35 81.4L62.459373 81.30625Q62.584373 82.11875 63.021873 82.525Q63.475 82.93125 64.11562 82.93125Q64.86562 82.93125 65.39687 82.35313Q65.92812 81.775 65.92812 80.8375Q65.92812 79.93125 65.4125 79.41563Q64.9125 78.88438 64.08437 78.88438Q63.584373 78.88438 63.1625 79.11875Q62.75625 79.35313 62.521873 79.7125L61.5375 79.5875L62.365623 75.18125L66.64687 75.18125L66.64687 76.18125L63.209373 76.18125L62.75625 78.49375Q63.521873 77.94688 64.36562 77.94688Q65.49062 77.94688 66.25625 78.72813Q67.0375 79.50938 67.0375 80.74375Q67.0375 81.9 66.36562 82.75938Q65.5375 83.79063 64.11562 83.79063Q62.94375 83.79063 62.19375 83.13438Q61.459373 82.47813 61.35 81.4ZM68.94375 83.65L68.94375 82.44688L70.14687 82.44688L70.14687 83.65L68.94375 83.65ZM71.35 79.41563Q71.35 77.88438 71.6625 76.9625Q71.975 76.025 72.58437 75.525Q73.20937 75.025 74.14687 75.025Q74.83437 75.025 75.35 75.30625Q75.88125 75.5875 76.225 76.11875Q76.56875 76.63438 76.75625 77.38438Q76.94375 78.13438 76.94375 79.41563Q76.94375 80.93125 76.63125 81.85313Q76.33437 82.775 75.70937 83.29063Q75.1 83.79063 74.14687 83.79063Q72.9125 83.79063 72.19375 82.9Q71.35 81.8375 71.35 79.41563ZM72.42812 79.41563Q72.42812 81.525 72.92812 82.22813Q73.42812 82.93125 74.14687 82.93125Q74.88125 82.93125 75.36562 82.22813Q75.86562 81.525 75.86562 79.41563Q75.86562 77.29063 75.36562 76.60313Q74.88125 75.9 74.13125 75.9Q73.4125 75.9 72.975 76.50938Q72.42812 77.29063 72.42812 79.41563ZM78.35 79.41563Q78.35 77.88438 78.6625 76.9625Q78.975 76.025 79.58437 75.525Q80.20937 75.025 81.14687 75.025Q81.83437 75.025 82.35 75.30625Q82.88125 75.5875 83.225 76.11875Q83.56875 76.63438 83.75625 77.38438Q83.94375 78.13438 83.94375 79.41563Q83.94375 80.93125 83.63125 81.85313Q83.33437 82.775 82.70937 83.29063Q82.1 83.79063 81.14687 83.79063Q79.9125 83.79063 79.19375 82.9Q78.35 81.8375 78.35 79.41563ZM79.42812 79.41563Q79.42812 81.525 79.92812 82.22813Q80.42812 82.93125 81.14687 82.93125Q81.88125 82.93125 82.36562 82.22813Q82.86562 81.525 82.86562 79.41563Q82.86562 77.29063 82.36562 76.60313Q81.88125 75.9 81.13125 75.9Q80.4125 75.9 79.975 76.50938Q79.42812 77.29063 79.42812 79.41563Z" fill-rule="nonzero"/><path fill="#000000" d="M140.95262 244.9L142.062 244.80624Q142.187 245.61874 142.6245 246.025Q143.07762 246.43124 143.71825 246.43124Q144.46825 246.43124 144.9995 245.85312Q145.53075 245.275 145.53075 244.3375Q145.53075 243.43124 145.01512 242.91562Q144.51512 242.38437 143.687 242.38437Q143.187 242.38437 142.76512 242.61874Q142.35887 242.85312 142.1245 243.2125L141.14012 243.0875L141.96825 238.68124L146.2495 238.68124L146.2495 239.68124L142.812 239.68124L142.35887 241.99374Q143.1245 241.44687 143.96825 241.44687Q145.09325 241.44687 145.85887 242.22812Q146.64012 243.00937 146.64012 244.24374Q146.64012 245.4 145.96825 246.25937Q145.14012 247.29062 143.71825 247.29062Q142.54637 247.29062 141.79637 246.63437Q141.062 245.97812 140.95262 244.9ZM147.95262 242.91562Q147.95262 241.38437 148.26512 240.4625Q148.57762 239.525 149.187 239.025Q149.812 238.525 150.7495 238.525Q151.437 238.525 151.95262 238.80624Q152.48387 239.0875 152.82762 239.61874Q153.17137 240.13437 153.35887 240.88437Q153.54637 241.63437 153.54637 242.91562Q153.54637 244.43124 153.23387 245.35312Q152.937 246.275 152.312 246.79062Q151.70262 247.29062 150.7495 247.29062Q149.51512 247.29062 148.79637 246.4Q147.95262 245.3375 147.95262 242.91562ZM149.03075 242.91562Q149.03075 245.025 149.53075 245.72812Q150.03075 246.43124 150.7495 246.43124Q151.48387 246.43124 151.96825 245.72812Q152.46825 245.025 152.46825 242.91562Q152.46825 240.79062 151.96825 240.10312Q151.48387 239.4 150.73387 239.4Q150.01512 239.4 149.57762 240.00937Q149.03075 240.79062 149.03075 242.91562Z" fill-rule="nonzero"/><path fill="#000000" d="M202.94597 247.15L201.8991 247.15L201.8991 240.43124Q201.50847 240.79062 200.88347 241.16562Q200.2741 241.525 199.78972 241.69687L199.78972 240.68124Q200.66472 240.25937 201.32097 239.68124Q201.99284 239.0875 202.2741 238.525L202.94597 238.525L202.94597 247.15ZM205.97722 242.91562Q205.97722 241.38437 206.28972 240.4625Q206.60222 239.525 207.2116 239.025Q207.8366 238.525 208.7741 238.525Q209.4616 238.525 209.97722 238.80624Q210.50847 239.0875 210.85222 239.61874Q211.19597 240.13437 211.38347 240.88437Q211.57097 241.63437 211.57097 242.91562Q211.57097 244.43124 211.25847 245.35312Q210.9616 246.275 210.3366 246.79062Q209.72722 247.29062 208.7741 247.29062Q207.53972 247.29062 206.82097 246.4Q205.97722 245.3375 205.97722 242.91562ZM207.05534 242.91562Q207.05534 245.025 207.55534 245.72812Q208.05534 246.43124 208.7741 246.43124Q209.50847 246.43124 209.99284 245.72812Q210.49284 245.025 210.49284 242.91562Q210.49284 240.79062 209.99284 240.10312Q209.50847 239.4 208.75847 239.4Q208.03972 239.4 207.60222 240.00937Q207.05534 240.79062 207.05534 242.91562ZM212.97722 242.91562Q212.97722 241.38437 213.28972 240.4625Q213.60222 239.525 214.2116 239.025Q214.8366 238.525 215.7741 238.525Q216.4616 238.525 216.97722 238.80624Q217.50847 239.0875 217.85222 239.61874Q218.19597 240.13437 218.38347 240.88437Q218.57097 241.63437 218.57097 242.91562Q218.57097 244.43124 218.25847 245.35312Q217.9616 246.275 217.3366 246.79062Q216.72722 247.29062 215.7741 247.29062Q214.53972 247.29062 213.82097 246.4Q212.97722 245.3375 212.97722 242.91562ZM214.05534 242.91562Q214.05534 245.025 214.55534 245.72812Q215.05534 246.43124 215.7741 246.43124Q216.50847 246.43124 216.99284 245.72812Q217.49284 245.025 217.49284 242.91562Q217.49284 240.79062 216.99284 240.10312Q216.50847 239.4 215.75847 239.4Q215.03972 239.4 214.60222 240.00937Q214.05534 240.79062 214.05534 242.91562Z" fill-rule="nonzero"/><path fill="#000000" d="M264.47055 247.15L263.42368 247.15L263.42368 240.43124Q263.03305 240.79062 262.40805 241.16562Q261.79868 241.525 261.3143 241.69687L261.3143 240.68124Q262.1893 240.25937 262.84555 239.68124Q263.51743 239.0875 263.79868 238.525L264.47055 238.525L264.47055 247.15ZM267.5018 244.9L268.61118 244.80624Q268.73618 245.61874 269.17368 246.025Q269.6268 246.43124 270.26743 246.43124Q271.01743 246.43124 271.54868 245.85312Q272.07993 245.275 272.07993 244.3375Q272.07993 243.43124 271.5643 242.91562Q271.0643 242.38437 270.23618 242.38437Q269.73618 242.38437 269.3143 242.61874Q268.90805 242.85312 268.67368 243.2125L267.6893 243.0875L268.51743 238.68124L272.79868 238.68124L272.79868 239.68124L269.36118 239.68124L268.90805 241.99374Q269.67368 241.44687 270.51743 241.44687Q271.64243 241.44687 272.40805 242.22812Q273.1893 243.00937 273.1893 244.24374Q273.1893 245.4 272.51743 246.25937Q271.6893 247.29062 270.26743 247.29062Q269.09555 247.29062 268.34555 246.63437Q267.61118 245.97812 267.5018 244.9ZM274.5018 242.91562Q274.5018 241.38437 274.8143 240.4625Q275.1268 239.525 275.73618 239.025Q276.36118 238.525 277.29868 238.525Q277.98618 238.525 278.5018 238.80624Q279.03305 239.0875 279.3768 239.61874Q279.72055 240.13437 279.90805 240.88437Q280.09555 241.63437 280.09555 242.91562Q280.09555 244.43124 279.78305 245.35312Q279.48618 246.275 278.86118 246.79062Q278.2518 247.29062 277.29868 247.29062Q276.0643 247.29062 275.34555 246.4Q274.5018 245.3375 274.5018 242.91562ZM275.57993 242.91562Q275.57993 245.025 276.07993 245.72812Q276.57993 246.43124 277.29868 246.43124Q278.03305 246.43124 278.51743 245.72812Q279.01743 245.025 279.01743 242.91562Q279.01743 240.79062 278.51743 240.10312Q278.03305 239.4 277.28305 239.4Q276.5643 239.4 276.1268 240.00937Q275.57993 240.79062 275.57993 242.91562Z" fill-rule="nonzero"/><path fill="#000000" d="M327.57327 246.13437L327.57327 247.15L321.88577 247.15Q321.88577 246.775 322.01077 246.41562Q322.22952 245.8375 322.69827 245.275Q323.18265 244.7125 324.0889 243.97812Q325.49515 242.82187 325.97952 242.15Q326.47952 241.47812 326.47952 240.88437Q326.47952 240.25937 326.0264 239.8375Q325.57327 239.4 324.85452 239.4Q324.0889 239.4 323.63577 239.85312Q323.18265 240.30624 323.16702 241.11874L322.0889 241.00937Q322.19827 239.79062 322.91702 239.16562Q323.6514 238.525 324.88577 238.525Q326.12015 238.525 326.8389 239.2125Q327.55765 239.9 327.55765 240.91562Q327.55765 241.43124 327.3389 241.93124Q327.13577 242.41562 326.63577 242.97812Q326.1514 243.525 325.0264 244.47812Q324.07327 245.275 323.79202 245.57187Q323.5264 245.85312 323.35452 246.13437L327.57327 246.13437ZM329.0264 242.91562Q329.0264 241.38437 329.3389 240.4625Q329.6514 239.525 330.26077 239.025Q330.88577 238.525 331.82327 238.525Q332.51077 238.525 333.0264 238.80624Q333.55765 239.0875 333.9014 239.61874Q334.24515 240.13437 334.43265 240.88437Q334.62015 241.63437 334.62015 242.91562Q334.62015 244.43124 334.30765 245.35312Q334.01077 246.275 333.38577 246.79062Q332.7764 247.29062 331.82327 247.29062Q330.5889 247.29062 329.87015 246.4Q329.0264 245.3375 329.0264 242.91562ZM330.10452 242.91562Q330.10452 245.025 330.60452 245.72812Q331.10452 246.43124 331.82327 246.43124Q332.55765 246.43124 333.04202 245.72812Q333.54202 245.025 333.54202 242.91562Q333.54202 240.79062 333.04202 240.10312Q332.55765 239.4 331.80765 239.4Q331.0889 239.4 330.6514 240.00937Q330.10452 240.79062 330.10452 242.91562ZM336.0264 242.91562Q336.0264 241.38437 336.3389 240.4625Q336.6514 239.525 337.26077 239.025Q337.88577 238.525 338.82327 238.525Q339.51077 238.525 340.0264 238.80624Q340.55765 239.0875 340.9014 239.61874Q341.24515 240.13437 341.43265 240.88437Q341.62015 241.63437 341.62015 242.91562Q341.62015 244.43124 341.30765 245.35312Q341.01077 246.275 340.38577 246.79062Q339.7764 247.29062 338.82327 247.29062Q337.5889 247.29062 336.87015 246.4Q336.0264 245.3375 336.0264 242.91562ZM337.10452 242.91562Q337.10452 245.025 337.60452 245.72812Q338.10452 246.43124 338.82327 246.43124Q339.55765 246.43124 340.04202 245.72812Q340.54202 245.025 340.54202 242.91562Q340.54202 240.79062 340.04202 240.10312Q339.55765 239.4 338.80765 239.4Q338.0889 239.4 337.6514 240.00937Q337.10452 240.79062 337.10452 242.91562Z" fill-rule="nonzero"/><path fill="#000000" d="M389.09787 246.13437L389.09787 247.15L383.41037 247.15Q383.41037 246.775 383.53537 246.41562Q383.75412 245.8375 384.22287 245.275Q384.70724 244.7125 385.6135 243.97812Q387.01974 242.82187 387.50412 242.15Q388.00412 241.47812 388.00412 240.88437Q388.00412 240.25937 387.551 239.8375Q387.09787 239.4 386.37912 239.4Q385.6135 239.4 385.16037 239.85312Q384.70724 240.30624 384.69162 241.11874L383.6135 241.00937Q383.72287 239.79062 384.44162 239.16562Q385.176 238.525 386.41037 238.525Q387.64474 238.525 388.3635 239.2125Q389.08224 239.9 389.08224 240.91562Q389.08224 241.43124 388.8635 241.93124Q388.66037 242.41562 388.16037 242.97812Q387.676 243.525 386.551 244.47812Q385.59787 245.275 385.31662 245.57187Q385.051 245.85312 384.87912 246.13437L389.09787 246.13437ZM390.551 244.9L391.66037 244.80624Q391.78537 245.61874 392.22287 246.025Q392.676 246.43124 393.31662 246.43124Q394.06662 246.43124 394.59787 245.85312Q395.12912 245.275 395.12912 244.3375Q395.12912 243.43124 394.6135 242.91562Q394.1135 242.38437 393.28537 242.38437Q392.78537 242.38437 392.3635 242.61874Q391.95724 242.85312 391.72287 243.2125L390.7385 243.0875L391.56662 238.68124L395.84787 238.68124L395.84787 239.68124L392.41037 239.68124L391.95724 241.99374Q392.72287 241.44687 393.56662 241.44687Q394.69162 241.44687 395.45724 242.22812Q396.2385 243.00937 396.2385 244.24374Q396.2385 245.4 395.56662 246.25937Q394.7385 247.29062 393.31662 247.29062Q392.14474 247.29062 391.39474 246.63437Q390.66037 245.97812 390.551 244.9ZM397.551 242.91562Q397.551 241.38437 397.8635 240.4625Q398.176 239.525 398.78537 239.025Q399.41037 238.525 400.34787 238.525Q401.03537 238.525 401.551 238.80624Q402.08224 239.0875 402.426 239.61874Q402.76974 240.13437 402.95724 240.88437Q403.14474 241.63437 403.14474 242.91562Q403.14474 244.43124 402.83224 245.35312Q402.53537 246.275 401.91037 246.79062Q401.301 247.29062 400.34787 247.29062Q399.1135 247.29062 398.39474 246.4Q397.551 245.3375 397.551 242.91562ZM398.62912 242.91562Q398.62912 245.025 399.12912 245.72812Q399.62912 246.43124 400.34787 246.43124Q401.08224 246.43124 401.56662 245.72812Q402.06662 245.025 402.06662 242.91562Q402.06662 240.79062 401.56662 240.10312Q401.08224 239.4 400.33224 239.4Q399.6135 239.4 399.176 240.00937Q398.62912 240.79062 398.62912 242.91562Z" fill-rule="nonzero"/><path fill="#000000" d="M445.07556 244.88437L446.13806 244.74374Q446.30994 245.63437 446.74744 246.04062Q447.18494 246.43124 447.80994 246.43124Q448.55994 246.43124 449.07556 245.91562Q449.5912 245.4 449.5912 244.63437Q449.5912 243.91562 449.1068 243.44687Q448.63806 242.9625 447.9037 242.9625Q447.6068 242.9625 447.1537 243.0875L447.2787 242.15Q447.38806 242.16562 447.45056 242.16562Q448.12244 242.16562 448.6537 241.82187Q449.20056 241.4625 449.20056 240.72812Q449.20056 240.15 448.80994 239.775Q448.4193 239.38437 447.7943 239.38437Q447.18494 239.38437 446.76306 239.775Q446.3568 240.16562 446.24744 240.93124L445.18494 240.74374Q445.37244 239.69687 446.05994 239.11874Q446.74744 238.525 447.76306 238.525Q448.4662 238.525 449.05994 238.8375Q449.6537 239.13437 449.9662 239.65Q450.2787 240.16562 450.2787 240.75937Q450.2787 241.30624 449.9818 241.775Q449.68494 242.22812 449.1068 242.49374Q449.8568 242.66562 450.2787 243.22812Q450.70056 243.775 450.70056 244.61874Q450.70056 245.74374 449.87244 246.525Q449.05994 247.30624 447.80994 247.30624Q446.68494 247.30624 445.93494 246.63437Q445.18494 245.94687 445.07556 244.88437ZM452.07556 242.91562Q452.07556 241.38437 452.38806 240.4625Q452.70056 239.525 453.30994 239.025Q453.93494 238.525 454.87244 238.525Q455.55994 238.525 456.07556 238.80624Q456.6068 239.0875 456.95056 239.61874Q457.2943 240.13437 457.4818 240.88437Q457.6693 241.63437 457.6693 242.91562Q457.6693 244.43124 457.3568 245.35312Q457.05994 246.275 456.43494 246.79062Q455.82556 247.29062 454.87244 247.29062Q453.63806 247.29062 452.9193 246.4Q452.07556 245.3375 452.07556 242.91562ZM453.1537 242.91562Q453.1537 245.025 453.6537 245.72812Q454.1537 246.43124 454.87244 246.43124Q455.6068 246.43124 456.0912 245.72812Q456.5912 245.025 456.5912 242.91562Q456.5912 240.79062 456.0912 240.10312Q455.6068 239.4 454.8568 239.4Q454.13806 239.4 453.70056 240.00937Q453.1537 240.79062 453.1537 242.91562ZM459.07556 242.91562Q459.07556 241.38437 459.38806 240.4625Q459.70056 239.525 460.30994 239.025Q460.93494 238.525 461.87244 238.525Q462.55994 238.525 463.07556 238.80624Q463.6068 239.0875 463.95056 239.61874Q464.2943 240.13437 464.4818 240.88437Q464.6693 241.63437 464.6693 242.91562Q464.6693 244.43124 464.3568 245.35312Q464.05994 246.275 463.43494 246.79062Q462.82556 247.29062 461.87244 247.29062Q460.63806 247.29062 459.9193 246.4Q459.07556 245.3375 459.07556 242.91562ZM460.1537 242.91562Q460.1537 245.025 460.6537 245.72812Q461.1537 246.43124 461.87244 246.43124Q462.6068 246.43124 463.0912 245.72812Q463.5912 245.025 463.5912 242.91562Q463.5912 240.79062 463.0912 240.10312Q462.6068 239.4 461.8568 239.4Q461.13806 239.4 460.70056 240.00937Q460.1537 240.79062 460.1537 242.91562Z" fill-rule="nonzero"/><path stroke="#4285f4" stroke-width="4.0" stroke-linecap="butt" d="M169.5 55.75L181.5 55.75" fill-rule="nonzero"/><path fill="#1a1a1a" d="M190.04688 56.984375L191.10938 56.890625Q191.1875 57.546875 191.46875 57.953125Q191.75 58.359375 192.32812 58.625Q192.92188 58.875 193.65625 58.875Q194.29688 58.875 194.79688 58.6875Q195.29688 58.484375 195.53125 58.15625Q195.78125 57.8125 195.78125 57.421875Q195.78125 57.015625 195.54688 56.71875Q195.3125 56.40625 194.78125 56.203125Q194.42188 56.0625 193.23438 55.78125Q192.0625 55.5 191.59375 55.25Q190.96875 54.921875 190.67188 54.453125Q190.375 53.96875 190.375 53.375Q190.375 52.734375 190.73438 52.171875Q191.10938 51.59375 191.8125 51.3125Q192.53125 51.015625 193.39062 51.015625Q194.34375 51.015625 195.07812 51.328125Q195.8125 51.625 196.20312 52.234375Q196.59375 52.828125 196.625 53.578125L195.53125 53.65625Q195.4375 52.84375 194.92188 52.4375Q194.42188 52.015625 193.4375 52.015625Q192.40625 52.015625 191.9375 52.390625Q191.46875 52.765625 191.46875 53.296875Q191.46875 53.765625 191.79688 54.0625Q192.125 54.359375 193.5 54.671875Q194.89062 54.984375 195.40625 55.21875Q196.15625 55.578125 196.51562 56.109375Q196.875 56.625 196.875 57.328125Q196.875 58.015625 196.48438 58.625Q196.09375 59.21875 195.35938 59.5625Q194.625 59.890625 193.70312 59.890625Q192.53125 59.890625 191.73438 59.5625Q190.95312 59.21875 190.5 58.53125Q190.0625 57.84375 190.04688 56.984375ZM198.29688 62.140625L198.29688 53.53125L199.25 53.53125L199.25 54.328125Q199.59375 53.859375 200.01562 53.625Q200.45312 53.390625 201.0625 53.390625Q201.85938 53.390625 202.46875 53.796875Q203.07812 54.203125 203.375 54.953125Q203.6875 55.703125 203.6875 56.59375Q203.6875 57.546875 203.34375 58.3125Q203.01562 59.078125 202.35938 59.484375Q201.70312 59.890625 200.98438 59.890625Q200.45312 59.890625 200.03125 59.671875Q199.60938 59.4375 199.34375 59.109375L199.34375 62.140625L198.29688 62.140625ZM199.25 56.671875Q199.25 57.875 199.73438 58.453125Q200.21875 59.015625 200.90625 59.015625Q201.60938 59.015625 202.10938 58.421875Q202.60938 57.828125 202.60938 56.578125Q202.60938 55.390625 202.125 54.8125Q201.64062 54.21875 200.95312 54.21875Q200.28125 54.21875 199.76562 54.84375Q199.25 55.46875 199.25 56.671875ZM204.90625 56.640625Q204.90625 54.90625 205.85938 54.078125Q206.65625 53.390625 207.8125 53.390625Q209.09375 53.390625 209.90625 54.234375Q210.73438 55.0625 210.73438 56.546875Q210.73438 57.75 210.375 58.4375Q210.01562 59.125 209.3125 59.515625Q208.625 59.890625 207.8125 59.890625Q206.51562 59.890625 205.70312 59.0625Q204.90625 58.21875 204.90625 56.640625ZM205.98438 56.640625Q205.98438 57.828125 206.5 58.421875Q207.03125 59.015625 207.8125 59.015625Q208.60938 59.015625 209.125 58.421875Q209.64062 57.828125 209.64062 56.609375Q209.64062 55.453125 209.10938 54.859375Q208.59375 54.265625 207.8125 54.265625Q207.03125 54.265625 206.5 54.859375Q205.98438 55.4375 205.98438 56.640625ZM211.90625 56.640625Q211.90625 54.90625 212.85938 54.078125Q213.65625 53.390625 214.8125 53.390625Q216.09375 53.390625 216.90625 54.234375Q217.73438 55.0625 217.73438 56.546875Q217.73438 57.75 217.375 58.4375Q217.01562 59.125 216.3125 59.515625Q215.625 59.890625 214.8125 59.890625Q213.51562 59.890625 212.70312 59.0625Q211.90625 58.21875 211.90625 56.640625ZM212.98438 56.640625Q212.98438 57.828125 213.5 58.421875Q214.03125 59.015625 214.8125 59.015625Q215.60938 59.015625 216.125 58.421875Q216.64062 57.828125 216.64062 56.609375Q216.64062 55.453125 216.10938 54.859375Q215.59375 54.265625 214.8125 54.265625Q214.03125 54.265625 213.5 54.859375Q212.98438 55.4375 212.98438 56.640625ZM219.29688 59.75L219.29688 51.15625L220.35938 51.15625L220.35938 56.0625L222.84375 53.53125L224.21875 53.53125L221.82812 55.828125L224.45312 59.75L223.15625 59.75L221.09375 56.5625L220.35938 57.28125L220.35938 59.75L219.29688 59.75ZM225.25 62.140625L225.125 61.15625Q225.46875 61.25 225.73438 61.25Q226.07812 61.25 226.28125 61.125Q226.5 61.015625 226.64062 60.8125Q226.73438 60.640625 226.96875 60.015625Q226.98438 59.9375 227.0625 59.765625L224.6875 53.53125L225.82812 53.53125L227.125 57.125Q227.375 57.8125 227.57812 58.578125Q227.76562 57.84375 228.01562 57.15625L229.34375 53.53125L230.39062 53.53125L228.03125 59.859375Q227.64062 60.875 227.4375 61.265625Q227.15625 61.796875 226.78125 62.03125Q226.42188 62.28125 225.92188 62.28125Q225.625 62.28125 225.25 62.140625Z" fill-rule="nonzero"/><path stroke="#ea4335" stroke-width="4.0" stroke-linecap="butt" d="M245.5 55.75L257.5 55.75" fill-rule="nonzero"/><path fill="#1a1a1a" d="M267.92188 59.75L265.64062 51.15625L266.8125 51.15625L268.125 56.796875Q268.32812 57.671875 268.48438 58.546875Q268.8125 57.171875 268.875 56.953125L270.5 51.15625L271.875 51.15625L273.10938 55.5Q273.5625 57.125 273.78125 58.546875Q273.9375 57.734375 274.20312 56.671875L275.54688 51.15625L276.6875 51.15625L274.34375 59.75L273.23438 59.75L271.4375 53.203125Q271.20312 52.390625 271.15625 52.203125Q271.03125 52.78125 270.90625 53.203125L269.09375 59.75L267.92188 59.75ZM277.25 62.140625L277.125 61.15625Q277.46875 61.25 277.73438 61.25Q278.07812 61.25 278.28125 61.125Q278.5 61.015625 278.64062 60.8125Q278.73438 60.640625 278.96875 60.015625Q278.98438 59.9375 279.0625 59.765625L276.6875 53.53125L277.82812 53.53125L279.125 57.125Q279.375 57.8125 279.57812 58.578125Q279.76562 57.84375 280.01562 57.15625L281.34375 53.53125L282.39062 53.53125L280.03125 59.859375Q279.64062 60.875 279.4375 61.265625Q279.15625 61.796875 278.78125 62.03125Q278.42188 62.28125 277.92188 62.28125Q277.625 62.28125 277.25 62.140625ZM282.46875 59.75L282.46875 51.15625L283.59375 51.15625L283.59375 54.6875L288.0625 54.6875L288.0625 51.15625L289.20312 51.15625L289.20312 59.75L288.0625 59.75L288.0625 55.703125L283.59375 55.703125L283.59375 59.75L282.46875 59.75ZM295.35938 58.984375Q294.76562 59.484375 294.21875 59.6875Q293.6875 59.890625 293.0625 59.890625Q292.03125 59.890625 291.48438 59.390625Q290.9375 58.890625 290.9375 58.109375Q290.9375 57.65625 291.14062 57.28125Q291.34375 56.890625 291.6875 56.671875Q292.03125 56.4375 292.45312 56.328125Q292.75 56.234375 293.39062 56.15625Q294.65625 56.015625 295.26562 55.796875Q295.26562 55.578125 295.26562 55.53125Q295.26562 54.875 294.96875 54.609375Q294.5625 54.265625 293.76562 54.265625Q293.03125 54.265625 292.67188 54.53125Q292.3125 54.78125 292.14062 55.4375L291.10938 55.296875Q291.25 54.640625 291.57812 54.234375Q291.90625 53.828125 292.51562 53.609375Q293.125 53.390625 293.92188 53.390625Q294.71875 53.390625 295.21875 53.578125Q295.71875 53.765625 295.95312 54.046875Q296.1875 54.328125 296.28125 54.765625Q296.32812 55.03125 296.32812 55.734375L296.32812 57.140625Q296.32812 58.609375 296.39062 59.0Q296.46875 59.390625 296.67188 59.75L295.5625 59.75Q295.40625 59.421875 295.35938 58.984375ZM295.26562 56.625Q294.6875 56.859375 293.54688 57.03125Q292.89062 57.125 292.625 57.25Q292.35938 57.359375 292.20312 57.578125Q292.0625 57.796875 292.0625 58.078125Q292.0625 58.5 292.375 58.78125Q292.70312 59.0625 293.3125 59.0625Q293.92188 59.0625 294.39062 58.796875Q294.875 58.53125 295.09375 58.0625Q295.26562 57.703125 295.26562 57.015625L295.26562 56.625ZM297.875 57.890625L298.90625 57.734375Q299.0 58.359375 299.39062 58.6875Q299.79688 59.015625 300.53125 59.015625Q301.25 59.015625 301.59375 58.734375Q301.95312 58.4375 301.95312 58.03125Q301.95312 57.671875 301.64062 57.46875Q301.42188 57.328125 300.5625 57.109375Q299.40625 56.8125 298.95312 56.609375Q298.51562 56.390625 298.28125 56.015625Q298.04688 55.640625 298.04688 55.171875Q298.04688 54.765625 298.23438 54.40625Q298.42188 54.046875 298.75 53.8125Q299.0 53.640625 299.42188 53.515625Q299.84375 53.390625 300.34375 53.390625Q301.0625 53.390625 301.60938 53.609375Q302.17188 53.8125 302.4375 54.171875Q302.70312 54.53125 302.79688 55.125L301.76562 55.265625Q301.70312 54.796875 301.35938 54.53125Q301.03125 54.25 300.40625 54.25Q299.6875 54.25 299.375 54.5Q299.0625 54.734375 299.0625 55.0625Q299.0625 55.265625 299.1875 55.421875Q299.32812 55.59375 299.59375 55.703125Q299.75 55.765625 300.53125 55.96875Q301.65625 56.28125 302.09375 56.46875Q302.53125 56.65625 302.78125 57.015625Q303.03125 57.375 303.03125 57.921875Q303.03125 58.453125 302.71875 58.921875Q302.42188 59.375 301.84375 59.640625Q301.26562 59.890625 300.53125 59.890625Q299.3125 59.890625 298.67188 59.390625Q298.04688 58.875 297.875 57.890625ZM305.29688 59.75L305.29688 51.15625L306.34375 51.15625L306.34375 54.234375Q307.07812 53.390625 308.20312 53.390625Q308.90625 53.390625 309.40625 53.671875Q309.92188 53.9375 310.14062 54.421875Q310.35938 54.890625 310.35938 55.8125L310.35938 59.75L309.3125 59.75L309.3125 55.8125Q309.3125 55.015625 308.96875 54.65625Q308.625 54.296875 308.0 54.296875Q307.53125 54.296875 307.10938 54.546875Q306.70312 54.78125 306.51562 55.203125Q306.34375 55.609375 306.34375 56.34375L306.34375 59.75L305.29688 59.75Z" fill-rule="nonzero"/><path fill="#757575" d="M14.81875 33.85L20.31875 19.537498L22.365625 19.537498L28.225 33.85L26.06875 33.85L24.396875 29.506248L18.4125 29.506248L16.834375 33.85L14.81875 33.85ZM18.959375 27.974998L23.803125 27.974998L22.31875 24.006248Q21.63125 22.193748 21.303125 21.037498Q21.021875 22.412498 20.521875 23.771873L18.959375 27.974998ZM29.709375 33.85L29.709375 19.537498L31.615625 19.537498L31.615625 33.85L29.709375 33.85ZM33.94375 33.85L39.475 26.381248L34.6 19.537498L36.85 19.537498L39.44375 23.209373Q40.25625 24.349998 40.6 24.959373Q41.084373 24.178123 41.725 23.334373L44.615623 19.537498L46.678123 19.537498L41.646873 26.287498L47.06875 33.85L44.725 33.85L41.115623 28.740623Q40.81875 28.303123 40.490623 27.787498Q40.00625 28.568748 39.803123 28.865623L36.209373 33.85L33.94375 33.85Z" fill-rule="nonzero"/></svg>