<svg version="1.1" viewBox="0.0 0.0 481.0 297.0" fill="none" stroke="none" stroke-linecap="square" stroke-miterlimit="10" width="481" height="297" xmlns:xlink="http://www.w3.org/1999/xlink" xmlns="http://www.w3.org/2000/svg"><path fill="#ffffff" d="M0 0L481.0 0L481.0 297.0L0 297.0L0 0Z" fill-rule="nonzero"/><path stroke="#cccccc" stroke-width="1.0" stroke-linecap="butt" d="M141.5 79.5L141.5 230.5" fill-rule="nonzero"/><path stroke="#cccccc" stroke-width="1.0" stroke-linecap="butt" d="M204.5 79.5L204.5 230.5" fill-rule="nonzero"/><path stroke="#cccccc" stroke-width="1.0" stroke-linecap="butt" d="M266.5 79.5L266.5 230.5" fill-rule="nonzero"/><path stroke="#cccccc" stroke-width="1.0" stroke-linecap="butt" d="M329.5 79.5L329.5 230.5" fill-rule="nonzero"/><path stroke="#cccccc" stroke-width="1.0" stroke-linecap="butt" d="M392.5 79.5L392.5 230.5" fill-rule="nonzero"/><path stroke="#cccccc" stroke-width="1.0" stroke-linecap="butt" d="M454.5 79.5L454.5 230.5" fill-rule="nonzero"/><path stroke="#333333" stroke-width="1.0" stroke-linecap="butt" d="M83.5 230.5L466.5 230.5" fill-rule="nonzero"/><path stroke="#cccccc" stroke-width="1.0" stroke-linecap="butt" d="M83.5 192.5L466.5 192.5" fill-rule="nonzero"/><path stroke="#cccccc" stroke-width="1.0" stroke-linecap="butt" d="M83.5 154.5L466.5 154.5" fill-rule="nonzero"/><path stroke="#cccccc" stroke-width="1.0" stroke-linecap="butt" d="M83.5 117.5L466.5 117.5" fill-rule="nonzero"/><path stroke="#cccccc" stroke-width="1.0" stroke-linecap="butt" d="M83.5 79.5L466.5 79.5" fill-rule="nonzero"/><clipPath id="id_0"><path d="M83.85 79.65L466.15 79.65L466.15 230.15L83.85 230.15L83.85 79.65Z" clip-rule="nonzero"/></clipPath><path stroke="#4285f4" stroke-width="2.0" stroke-linecap="butt" clip-path="url(#id_0)" d="M83.85 196.33002L88.86377 197.48962L92.6241 195.86667L98.89131 186.38197L107.66541 176.84366L117.69295 177.30324L212.95459 149.40092L399.71753 103.83629L466.15 84.32773" fill-rule="nonzero"/><path stroke="#ea4335" stroke-width="2.0" stroke-linecap="butt" clip-path="url(#id_0)" d="M83.85 213.5547L88.86377 213.86203L92.6241 214.02882L98.89131 213.91164L107.66541 213.15279L117.69295 212.98157L212.95459 202.23883L399.71753 188.65433L466.15 180.93086" fill-rule="nonzero"/><path fill="#000000" fill-opacity="0.0" clip-path="url(#id_0)" d="M86.85 196.33002C86.85 197.98688 85.50685 199.33002 83.85 199.33002C82.193146 199.33002 80.85 197.98688 80.85 196.33002C80.85 194.67316 82.193146 193.33002 83.85 193.33002C85.50685 193.33002 86.85 194.67316 86.85 196.33002Z" fill-rule="nonzero"/><path fill="#000000" fill-opacity="0.0" clip-path="url(#id_0)" d="M91.86377 197.48962C91.86377 199.14647 90.52062 200.48962 88.86377 200.48962C87.20692 200.48962 85.86377 199.14647 85.86377 197.48962C85.86377 195.83276 87.20692 194.48962 88.86377 194.48962C90.52062 194.48962 91.86377 195.83276 91.86377 197.48962Z" fill-rule="nonzero"/><path fill="#000000" fill-opacity="0.0" clip-path="url(#id_0)" d="M95.6241 195.86667C95.6241 197.52351 94.28095 198.86667 92.6241 198.86667C90.96725 198.86667 89.6241 197.52351 89.6241 195.86667C89.6241 194.20981 90.96725 192.86667 92.6241 192.86667C94.28095 192.86667 95.6241 194.20981 95.6241 195.86667Z" fill-rule="nonzero"/><path fill="#000000" fill-opacity="0.0" clip-path="url(#id_0)" d="M101.89131 186.38197C101.89131 188.03882 100.548164 189.38197 98.89131 189.38197C97.23446 189.38197 95.89131 188.03882 95.89131 186.38197C95.89131 184.72511 97.23446 183.38197 98.89131 183.38197C100.548164 183.38197 101.89131 184.72511 101.89131 186.38197Z" fill-rule="nonzero"/><path fill="#000000" fill-opacity="0.0" clip-path="url(#id_0)" d="M110.66541 176.84366C110.66541 178.5005 109.322266 179.84366 107.66541 179.84366C106.00855 179.84366 104.66541 178.5005 104.66541 176.84366C104.66541 175.1868 106.00855 173.84366 107.66541 173.84366C109.322266 173.84366 110.66541 175.1868 110.66541 176.84366Z" fill-rule="nonzero"/><path fill="#000000" fill-opacity="0.0" clip-path="url(#id_0)" d="M120.69295 177.30324C120.69295 178.9601 119.34981 180.30324 117.69295 180.30324C116.036095 180.30324 114.69295 178.9601 114.69295 177.30324C114.69295 175.6464 116.036095 174.30324 117.69295 174.30324C119.34981 174.30324 120.69295 175.6464 120.69295 177.30324Z" fill-rule="nonzero"/><path fill="#000000" fill-opacity="0.0" clip-path="url(#id_0)" d="M215.95459 149.40092C215.95459 151.05777 214.61145 152.40092 212.95459 152.40092C211.29773 152.40092 209.95459 151.05777 209.95459 149.40092C209.95459 147.74406 211.29773 146.40092 212.95459 146.40092C214.61145 146.40092 215.95459 147.74406 215.95459 149.40092Z" fill-rule="nonzero"/><path fill="#000000" fill-opacity="0.0" clip-path="url(#id_0)" d="M402.71753 103.83629C402.71753 105.49314 401.3744 106.83629 399.71753 106.83629C398.0607 106.83629 396.71753 105.49314 396.71753 103.83629C396.71753 102.179436 398.0607 100.83629 399.71753 100.83629C401.3744 100.83629 402.71753 102.179436 402.71753 103.83629Z" fill-rule="nonzero"/><path fill="#000000" fill-opacity="0.0" clip-path="url(#id_0)" d="M469.15 84.32773C469.15 85.98458 467.80685 87.32773 466.15 87.32773C464.49313 87.32773 463.15 85.98458 463.15 84.32773C463.15 82.670876 464.49313 81.32773 466.15 81.32773C467.80685 81.32773 469.15 82.670876 469.15 84.32773Z" fill-rule="nonzero"/><path fill="#000000" fill-opacity="0.0" clip-path="url(#id_0)" d="M86.85 213.5547C86.85 215.21156 85.50685 216.5547 83.85 216.5547C82.193146 216.5547 80.85 215.21156 80.85 213.5547C80.85 211.89784 82.193146 210.5547 83.85 210.5547C85.50685 210.5547 86.85 211.89784 86.85 213.5547Z" fill-rule="nonzero"/><path fill="#000000" fill-opacity="0.0" clip-path="url(#id_0)" d="M91.86377 213.86203C91.86377 215.51888 90.52062 216.86203 88.86377 216.86203C87.20692 216.86203 85.86377 215.51888 85.86377 213.86203C85.86377 212.20517 87.20692 210.86203 88.86377 210.86203C90.52062 210.86203 91.86377 212.20517 91.86377 213.86203Z" fill-rule="nonzero"/><path fill="#000000" fill-opacity="0.0" clip-path="url(#id_0)" d="M95.6241 214.02882C95.6241 215.68567 94.28095 217.02882 92.6241 217.02882C90.96725 217.02882 89.6241 215.68567 89.6241 214.02882C89.6241 212.37196 90.96725 211.02882 92.6241 211.02882C94.28095 211.02882 95.6241 212.37196 95.6241 214.02882Z" fill-rule="nonzero"/><path fill="#000000" fill-opacity="0.0" clip-path="url(#id_0)" d="M101.89131 213.91164C101.89131 215.56848 100.548164 216.91164 98.89131 216.91164C97.23446 216.91164 95.89131 215.56848 95.89131 213.91164C95.89131 212.25478 97.23446 210.91164 98.89131 210.91164C100.548164 210.91164 101.89131 212.25478 101.89131 213.91164Z" fill-rule="nonzero"/><path fill="#000000" fill-opacity="0.0" clip-path="url(#id_0)" d="M110.66541 213.15279C110.66541 214.80965 109.322266 216.15279 107.66541 216.15279C106.00855 216.15279 104.66541 214.80965 104.66541 213.15279C104.66541 211.49594 106.00855 210.15279 107.66541 210.15279C109.322266 210.15279 110.66541 211.49594 110.66541 213.15279Z" fill-rule="nonzero"/><path fill="#000000" fill-opacity="0.0" clip-path="url(#id_0)" d="M120.69295 212.98157C120.69295 214.63841 119.34981 215.98157 117.69295 215.98157C116.036095 215.98157 114.69295 214.63841 114.69295 212.98157C114.69295 211.3247 116.036095 209.98157 117.69295 209.98157C119.34981 209.98157 120.69295 211.3247 120.69295 212.98157Z" fill-rule="nonzero"/><path fill="#000000" fill-opacity="0.0" clip-path="url(#id_0)" d="M215.95459 202.23883C215.95459 203.89569 214.61145 205.23883 212.95459 205.23883C211.29773 205.23883 209.95459 203.89569 209.95459 202.23883C209.95459 200.58199 211.29773 199.23883 212.95459 199.23883C214.61145 199.23883 215.95459 200.58199 215.95459 202.23883Z" fill-rule="nonzero"/><path fill="#000000" fill-opacity="0.0" clip-path="url(#id_0)" d="M402.71753 188.65433C402.71753 190.31119 401.3744 191.65433 399.71753 191.65433C398.0607 191.65433 396.71753 190.31119 396.71753 188.65433C396.71753 186.99747 398.0607 185.65433 399.71753 185.65433C401.3744 185.65433 402.71753 186.99747 402.71753 188.65433Z" fill-rule="nonzero"/><path fill="#000000" fill-opacity="0.0" clip-path="url(#id_0)" d="M469.15 180.93086C469.15 182.5877 467.80685 183.93086 466.15 183.93086C464.49313 183.93086 463.15 182.5877 463.15 180.93086C463.15 179.274 464.49313 177.93086 466.15 177.93086C467.80685 177.93086 469.15 179.274 469.15 180.93086Z" fill-rule="nonzero"/><path fill="#000000" d="M206.92188 279.15L206.92188 270.55624L208.07812 270.55624L212.59375 277.30624L212.59375 270.55624L213.6875 270.55624L213.6875 279.15L212.51562 279.15L208.0 272.4L208.0 279.15L206.92188 279.15ZM219.875 279.15L219.875 278.22812Q219.14062 279.29062 217.89062 279.29062Q217.34375 279.29062 216.85938 279.0875Q216.39062 278.86874 216.15625 278.55624Q215.92188 278.22812 215.82812 277.75937Q215.76562 277.4625 215.76562 276.775L215.76562 272.93124L216.82812 272.93124L216.82812 276.38437Q216.82812 277.19687 216.89062 277.49374Q216.98438 277.9 217.29688 278.15Q217.625 278.38437 218.10938 278.38437Q218.57812 278.38437 218.98438 278.15Q219.40625 277.9 219.57812 277.47812Q219.76562 277.05624 219.76562 276.25937L219.76562 272.93124L220.8125 272.93124L220.8125 279.15L219.875 279.15ZM222.79688 279.15L222.79688 272.93124L223.73438 272.93124L223.73438 273.80624Q224.03125 273.3375 224.51562 273.07187Q225.0 272.79062 225.625 272.79062Q226.3125 272.79062 226.75 273.07187Q227.20312 273.35312 227.375 273.86874Q228.125 272.79062 229.29688 272.79062Q230.23438 272.79062 230.71875 273.30624Q231.21875 273.80624 231.21875 274.88437L231.21875 279.15L230.17188 279.15L230.17188 275.22812Q230.17188 274.60312 230.0625 274.32187Q229.96875 274.04062 229.70312 273.86874Q229.4375 273.69687 229.0625 273.69687Q228.40625 273.69687 227.96875 274.13437Q227.54688 274.57187 227.54688 275.54062L227.54688 279.15L226.48438 279.15L226.48438 275.10312Q226.48438 274.4 226.21875 274.05624Q225.96875 273.69687 225.39062 273.69687Q224.9375 273.69687 224.5625 273.93124Q224.1875 274.16562 224.01562 274.61874Q223.84375 275.07187 223.84375 275.91562L223.84375 279.15L222.79688 279.15ZM234.76562 279.15L233.78125 279.15L233.78125 270.55624L234.84375 270.55624L234.84375 273.61874Q235.51562 272.79062 236.54688 272.79062Q237.125 272.79062 237.625 273.025Q238.14062 273.24374 238.46875 273.66562Q238.8125 274.0875 239.0 274.68124Q239.1875 275.275 239.1875 275.94687Q239.1875 277.54062 238.39062 278.41562Q237.59375 279.29062 236.5 279.29062Q235.39062 279.29062 234.76562 278.36874L234.76562 279.15ZM234.75 275.99374Q234.75 277.10312 235.0625 277.60312Q235.5625 278.41562 236.40625 278.41562Q237.09375 278.41562 237.59375 277.82187Q238.10938 277.22812 238.10938 276.025Q238.10938 274.80624 237.625 274.22812Q237.14062 273.65 236.45312 273.65Q235.76562 273.65 235.25 274.25937Q234.75 274.85312 234.75 275.99374ZM245.04688 277.15L246.14062 277.275Q245.89062 278.22812 245.1875 278.75937Q244.48438 279.29062 243.40625 279.29062Q242.04688 279.29062 241.23438 278.44687Q240.4375 277.60312 240.4375 276.0875Q240.4375 274.525 241.25 273.66562Q242.0625 272.79062 243.34375 272.79062Q244.59375 272.79062 245.375 273.63437Q246.17188 274.47812 246.17188 276.025Q246.17188 276.11874 246.17188 276.30624L241.53125 276.30624Q241.59375 277.3375 242.10938 277.88437Q242.625 278.41562 243.40625 278.41562Q243.98438 278.41562 244.39062 278.11874Q244.8125 277.80624 245.04688 277.15ZM241.59375 275.44687L245.0625 275.44687Q245.0 274.65 244.67188 274.25937Q244.15625 273.65 243.35938 273.65Q242.625 273.65 242.125 274.13437Q241.64062 274.61874 241.59375 275.44687ZM247.78125 279.15L247.78125 272.93124L248.73438 272.93124L248.73438 273.86874Q249.09375 273.2125 249.39062 273.00937Q249.70312 272.79062 250.07812 272.79062Q250.60938 272.79062 251.15625 273.11874L250.79688 274.10312Q250.40625 273.86874 250.03125 273.86874Q249.67188 273.86874 249.39062 274.0875Q249.125 274.29062 249.01562 274.66562Q248.82812 275.22812 248.82812 275.88437L248.82812 279.15L247.78125 279.15ZM254.40625 276.04062Q254.40625 274.30624 255.35938 273.47812Q256.15625 272.79062 257.3125 272.79062Q258.59375 272.79062 259.40625 273.63437Q260.23438 274.4625 260.23438 275.94687Q260.23438 277.15 259.875 277.8375Q259.51562 278.525 258.8125 278.91562Q258.125 279.29062 257.3125 279.29062Q256.01562 279.29062 255.20312 278.4625Q254.40625 277.61874 254.40625 276.04062ZM255.48438 276.04062Q255.48438 277.22812 256.0 277.82187Q256.53125 278.41562 257.3125 278.41562Q258.10938 278.41562 258.625 277.82187Q259.14062 277.22812 259.14062 276.00937Q259.14062 274.85312 258.60938 274.25937Q258.09375 273.66562 257.3125 273.66562Q256.53125 273.66562 256.0 274.25937Q255.48438 274.8375 255.48438 276.04062ZM262.04688 279.15L262.04688 273.74374L261.10938 273.74374L261.10938 272.93124L262.04688 272.93124L262.04688 272.25937Q262.04688 271.63437 262.15625 271.3375Q262.3125 270.91562 262.6875 270.66562Q263.07812 270.41562 263.76562 270.41562Q264.21875 270.41562 264.75 270.525L264.59375 271.43124Q264.26562 271.38437 263.96875 271.38437Q263.48438 271.38437 263.28125 271.5875Q263.09375 271.79062 263.09375 272.35312L263.09375 272.93124L264.3125 272.93124L264.3125 273.74374L263.09375 273.74374L263.09375 279.15L262.04688 279.15ZM267.875 279.15L267.875 270.55624L271.10938 270.55624Q272.09375 270.55624 272.6875 270.82187Q273.28125 271.0875 273.60938 271.63437Q273.95312 272.16562 273.95312 272.75937Q273.95312 273.30624 273.65625 273.79062Q273.35938 274.275 272.75 274.57187Q273.53125 274.80624 273.9375 275.36874Q274.35938 275.91562 274.35938 276.66562Q274.35938 277.25937 274.10938 277.79062Q273.85938 278.30624 273.48438 278.5875Q273.10938 278.86874 272.53125 279.00937Q271.96875 279.15 271.15625 279.15L267.875 279.15ZM269.01562 274.16562L270.875 274.16562Q271.625 274.16562 271.95312 274.07187Q272.39062 273.94687 272.60938 273.65Q272.82812 273.3375 272.82812 272.88437Q272.82812 272.4625 272.625 272.13437Q272.42188 271.80624 272.03125 271.69687Q271.65625 271.57187 270.73438 271.57187L269.01562 271.57187L269.01562 274.16562ZM269.01562 278.13437L271.15625 278.13437Q271.70312 278.13437 271.92188 278.0875Q272.32812 278.025 272.57812 277.86874Q272.84375 277.69687 273.01562 277.38437Q273.1875 277.07187 273.1875 276.66562Q273.1875 276.18124 272.9375 275.82187Q272.70312 275.4625 272.26562 275.32187Q271.82812 275.18124 271.0 275.18124L269.01562 275.18124L269.01562 278.13437ZM275.75 281.54062L275.625 280.55624Q275.96875 280.65 276.23438 280.65Q276.57812 280.65 276.78125 280.525Q277.0 280.41562 277.14062 280.2125Q277.23438 280.04062 277.46875 279.41562Q277.48438 279.3375 277.5625 279.16562L275.1875 272.93124L276.32812 272.93124L277.625 276.525Q277.875 277.2125 278.07812 277.97812Q278.26562 277.24374 278.51562 276.55624L279.84375 272.93124L280.89062 272.93124L278.53125 279.25937Q278.14062 280.275 277.9375 280.66562Q277.65625 281.19687 277.28125 281.43124Q276.92188 281.68124 276.42188 281.68124Q276.125 281.68124 275.75 281.54062ZM283.09375 278.2125L283.25 279.13437Q282.79688 279.22812 282.45312 279.22812Q281.875 279.22812 281.5625 279.05624Q281.25 278.86874 281.10938 278.57187Q280.98438 278.275 280.98438 277.32187L280.98438 273.74374L280.21875 273.74374L280.21875 272.93124L280.98438 272.93124L280.98438 271.38437L282.03125 270.75937L282.03125 272.93124L283.09375 272.93124L283.09375 273.74374L282.03125 273.74374L282.03125 277.38437Q282.03125 277.8375 282.07812 277.9625Q282.14062 278.0875 282.26562 278.16562Q282.39062 278.24374 282.625 278.24374Q282.8125 278.24374 283.09375 278.2125ZM288.04688 277.15L289.14062 277.275Q288.89062 278.22812 288.1875 278.75937Q287.48438 279.29062 286.40625 279.29062Q285.04688 279.29062 284.23438 278.44687Q283.4375 277.60312 283.4375 276.0875Q283.4375 274.525 284.25 273.66562Q285.0625 272.79062 286.34375 272.79062Q287.59375 272.79062 288.375 273.63437Q289.17188 274.47812 289.17188 276.025Q289.17188 276.11874 289.17188 276.30624L284.53125 276.30624Q284.59375 277.3375 285.10938 277.88437Q285.625 278.41562 286.40625 278.41562Q286.98438 278.41562 287.39062 278.11874Q287.8125 277.80624 288.04688 277.15ZM284.59375 275.44687L288.0625 275.44687Q288.0 274.65 287.67188 274.25937Q287.15625 273.65 286.35938 273.65Q285.625 273.65 285.125 274.13437Q284.64062 274.61874 284.59375 275.44687ZM290.375 277.29062L291.40625 277.13437Q291.5 277.75937 291.89062 278.0875Q292.29688 278.41562 293.03125 278.41562Q293.75 278.41562 294.09375 278.13437Q294.45312 277.8375 294.45312 277.43124Q294.45312 277.07187 294.14062 276.86874Q293.92188 276.72812 293.0625 276.50937Q291.90625 276.2125 291.45312 276.00937Q291.01562 275.79062 290.78125 275.41562Q290.54688 275.04062 290.54688 274.57187Q290.54688 274.16562 290.73438 273.80624Q290.92188 273.44687 291.25 273.2125Q291.5 273.04062 291.92188 272.91562Q292.34375 272.79062 292.84375 272.79062Q293.5625 272.79062 294.10938 273.00937Q294.67188 273.2125 294.9375 273.57187Q295.20312 273.93124 295.29688 274.525L294.26562 274.66562Q294.20312 274.19687 293.85938 273.93124Q293.53125 273.65 292.90625 273.65Q292.1875 273.65 291.875 273.9Q291.5625 274.13437 291.5625 274.4625Q291.5625 274.66562 291.6875 274.82187Q291.82812 274.99374 292.09375 275.10312Q292.25 275.16562 293.03125 275.36874Q294.15625 275.68124 294.59375 275.86874Q295.03125 276.05624 295.28125 276.41562Q295.53125 276.775 295.53125 277.32187Q295.53125 277.85312 295.21875 278.32187Q294.92188 278.775 294.34375 279.04062Q293.76562 279.29062 293.03125 279.29062Q291.8125 279.29062 291.17188 278.79062Q290.54688 278.275 290.375 277.29062ZM300.96875 279.15L300.96875 270.55624L302.09375 270.55624L302.09375 274.0875L306.5625 274.0875L306.5625 270.55624L307.70312 270.55624L307.70312 279.15L306.5625 279.15L306.5625 275.10312L302.09375 275.10312L302.09375 279.15L300.96875 279.15ZM313.85938 278.38437Q313.26562 278.88437 312.71875 279.0875Q312.1875 279.29062 311.5625 279.29062Q310.53125 279.29062 309.98438 278.79062Q309.4375 278.29062 309.4375 277.50937Q309.4375 277.05624 309.64062 276.68124Q309.84375 276.29062 310.1875 276.07187Q310.53125 275.8375 310.95312 275.72812Q311.25 275.63437 311.89062 275.55624Q313.15625 275.41562 313.76562 275.19687Q313.76562 274.97812 313.76562 274.93124Q313.76562 274.275 313.46875 274.00937Q313.0625 273.66562 312.26562 273.66562Q311.53125 273.66562 311.17188 273.93124Q310.8125 274.18124 310.64062 274.8375L309.60938 274.69687Q309.75 274.04062 310.07812 273.63437Q310.40625 273.22812 311.01562 273.00937Q311.625 272.79062 312.42188 272.79062Q313.21875 272.79062 313.71875 272.97812Q314.21875 273.16562 314.45312 273.44687Q314.6875 273.72812 314.78125 274.16562Q314.82812 274.43124 314.82812 275.13437L314.82812 276.54062Q314.82812 278.00937 314.89062 278.4Q314.96875 278.79062 315.17188 279.15L314.0625 279.15Q313.90625 278.82187 313.85938 278.38437ZM313.76562 276.025Q313.1875 276.25937 312.04688 276.43124Q311.39062 276.525 311.125 276.65Q310.85938 276.75937 310.70312 276.97812Q310.5625 277.19687 310.5625 277.47812Q310.5625 277.9 310.875 278.18124Q311.20312 278.4625 311.8125 278.4625Q312.42188 278.4625 312.89062 278.19687Q313.375 277.93124 313.59375 277.4625Q313.76562 277.10312 313.76562 276.41562L313.76562 276.025ZM316.375 277.29062L317.40625 277.13437Q317.5 277.75937 317.89062 278.0875Q318.29688 278.41562 319.03125 278.41562Q319.75 278.41562 320.09375 278.13437Q320.45312 277.8375 320.45312 277.43124Q320.45312 277.07187 320.14062 276.86874Q319.92188 276.72812 319.0625 276.50937Q317.90625 276.2125 317.45312 276.00937Q317.01562 275.79062 316.78125 275.41562Q316.54688 275.04062 316.54688 274.57187Q316.54688 274.16562 316.73438 273.80624Q316.92188 273.44687 317.25 273.2125Q317.5 273.04062 317.92188 272.91562Q318.34375 272.79062 318.84375 272.79062Q319.5625 272.79062 320.10938 273.00937Q320.67188 273.2125 320.9375 273.57187Q321.20312 273.93124 321.29688 274.525L320.26562 274.66562Q320.20312 274.19687 319.85938 273.93124Q319.53125 273.65 318.90625 273.65Q318.1875 273.65 317.875 273.9Q317.5625 274.13437 317.5625 274.4625Q317.5625 274.66562 317.6875 274.82187Q317.82812 274.99374 318.09375 275.10312Q318.25 275.16562 319.03125 275.36874Q320.15625 275.68124 320.59375 275.86874Q321.03125 276.05624 321.28125 276.41562Q321.53125 276.775 321.53125 277.32187Q321.53125 277.85312 321.21875 278.32187Q320.92188 278.775 320.34375 279.04062Q319.76562 279.29062 319.03125 279.29062Q317.8125 279.29062 317.17188 278.79062Q316.54688 278.275 316.375 277.29062ZM323.79688 279.15L323.79688 270.55624L324.84375 270.55624L324.84375 273.63437Q325.57812 272.79062 326.70312 272.79062Q327.40625 272.79062 327.90625 273.07187Q328.42188 273.3375 328.64062 273.82187Q328.85938 274.29062 328.85938 275.2125L328.85938 279.15L327.8125 279.15L327.8125 275.2125Q327.8125 274.41562 327.46875 274.05624Q327.125 273.69687 326.5 273.69687Q326.03125 273.69687 325.60938 273.94687Q325.20312 274.18124 325.01562 274.60312Q324.84375 275.00937 324.84375 275.74374L324.84375 279.15L323.79688 279.15ZM335.04688 277.15L336.14062 277.275Q335.89062 278.22812 335.1875 278.75937Q334.48438 279.29062 333.40625 279.29062Q332.04688 279.29062 331.23438 278.44687Q330.4375 277.60312 330.4375 276.0875Q330.4375 274.525 331.25 273.66562Q332.0625 272.79062 333.34375 272.79062Q334.59375 272.79062 335.375 273.63437Q336.17188 274.47812 336.17188 276.025Q336.17188 276.11874 336.17188 276.30624L331.53125 276.30624Q331.59375 277.3375 332.10938 277.88437Q332.625 278.41562 333.40625 278.41562Q333.98438 278.41562 334.39062 278.11874Q334.8125 277.80624 335.04688 277.15ZM331.59375 275.44687L335.0625 275.44687Q335.0 274.65 334.67188 274.25937Q334.15625 273.65 333.35938 273.65Q332.625 273.65 332.125 274.13437Q331.64062 274.61874 331.59375 275.44687ZM341.82812 279.15L341.82812 278.36874Q341.23438 279.29062 340.09375 279.29062Q339.34375 279.29062 338.71875 278.88437Q338.09375 278.4625 337.75 277.72812Q337.40625 276.99374 337.40625 276.04062Q337.40625 275.11874 337.71875 274.35312Q338.03125 273.5875 338.65625 273.19687Q339.28125 272.79062 340.04688 272.79062Q340.60938 272.79062 341.04688 273.025Q341.48438 273.25937 341.76562 273.63437L341.76562 270.55624L342.8125 270.55624L342.8125 279.15L341.82812 279.15ZM338.5 276.04062Q338.5 277.24374 339.0 277.8375Q339.5 278.41562 340.1875 278.41562Q340.875 278.41562 341.35938 277.85312Q341.84375 277.29062 341.84375 276.13437Q341.84375 274.85312 341.34375 274.25937Q340.85938 273.66562 340.14062 273.66562Q339.4375 273.66562 338.96875 274.24374Q338.5 274.80624 338.5 276.04062Z" fill-rule="nonzero"/><path fill="#000000" d="M25.849995 198.60312L19.631245 198.60312L19.631245 197.66562L20.506245 197.66562Q19.49062 196.97812 19.49062 195.68124Q19.49062 195.11874 19.693745 194.65Q19.89687 194.16562 20.224995 193.93124Q20.55312 193.69687 20.99062 193.60312Q21.287495 193.55624 22.02187 193.55624L25.849995 193.55624L25.849995 194.60312L22.068745 194.60312Q21.412495 194.60312 21.099995 194.72812Q20.787495 194.85312 20.599995 195.16562Q20.39687 195.47812 20.39687 195.9Q20.39687 196.57187 20.83437 197.07187Q21.256245 197.55624 22.443745 197.55624L25.849995 197.55624L25.849995 198.60312ZM25.08437 187.54062Q25.58437 188.13437 25.787495 188.68124Q25.99062 189.2125 25.99062 189.8375Q25.99062 190.86874 25.49062 191.41562Q24.99062 191.9625 24.20937 191.9625Q23.756245 191.9625 23.381245 191.75937Q22.99062 191.55624 22.77187 191.2125Q22.537495 190.86874 22.42812 190.44687Q22.33437 190.15 22.256245 189.50937Q22.11562 188.24374 21.89687 187.63437Q21.67812 187.63437 21.631245 187.63437Q20.974995 187.63437 20.70937 187.93124Q20.36562 188.3375 20.36562 189.13437Q20.36562 189.86874 20.631245 190.22812Q20.881245 190.5875 21.537495 190.75937L21.39687 191.79062Q20.74062 191.65 20.33437 191.32187Q19.92812 190.99374 19.70937 190.38437Q19.49062 189.775 19.49062 188.97812Q19.49062 188.18124 19.67812 187.68124Q19.86562 187.18124 20.14687 186.94687Q20.42812 186.7125 20.86562 186.61874Q21.131245 186.57187 21.83437 186.57187L23.24062 186.57187Q24.70937 186.57187 25.099995 186.50937Q25.49062 186.43124 25.849995 186.22812L25.849995 187.3375Q25.52187 187.49374 25.08437 187.54062ZM22.724995 187.63437Q22.95937 188.2125 23.131245 189.35312Q23.224995 190.00937 23.349995 190.275Q23.45937 190.54062 23.67812 190.69687Q23.89687 190.8375 24.17812 190.8375Q24.599995 190.8375 24.881245 190.525Q25.162495 190.19687 25.162495 189.5875Q25.162495 188.97812 24.89687 188.50937Q24.631245 188.025 24.162495 187.80624Q23.80312 187.63437 23.11562 187.63437L22.724995 187.63437ZM25.849995 184.60312L19.631245 184.60312L19.631245 183.66562L20.506245 183.66562Q19.49062 182.97812 19.49062 181.68124Q19.49062 181.11874 19.693745 180.65Q19.89687 180.16562 20.224995 179.93124Q20.55312 179.69687 20.99062 179.60312Q21.287495 179.55624 22.02187 179.55624L25.849995 179.55624L25.849995 180.60312L22.068745 180.60312Q21.412495 180.60312 21.099995 180.72812Q20.787495 180.85312 20.599995 181.16562Q20.39687 181.47812 20.39687 181.9Q20.39687 182.57187 20.83437 183.07187Q21.256245 183.55624 22.443745 183.55624L25.849995 183.55624L25.849995 184.60312ZM22.74062 177.99374Q21.006245 177.99374 20.17812 177.04062Q19.49062 176.24374 19.49062 175.0875Q19.49062 173.80624 20.33437 172.99374Q21.162495 172.16562 22.64687 172.16562Q23.849995 172.16562 24.537495 172.525Q25.224995 172.88437 25.61562 173.5875Q25.99062 174.275 25.99062 175.0875Q25.99062 176.38437 25.162495 177.19687Q24.318745 177.99374 22.74062 177.99374ZM22.74062 176.91562Q23.92812 176.91562 24.52187 176.4Q25.11562 175.86874 25.11562 175.0875Q25.11562 174.29062 24.52187 173.775Q23.92812 173.25937 22.70937 173.25937Q21.55312 173.25937 20.95937 173.79062Q20.36562 174.30624 20.36562 175.0875Q20.36562 175.86874 20.95937 176.4Q21.537495 176.91562 22.74062 176.91562ZM23.99062 171.025L23.83437 169.99374Q24.45937 169.9 24.787495 169.50937Q25.11562 169.10312 25.11562 168.36874Q25.11562 167.65 24.83437 167.30624Q24.537495 166.94687 24.131245 166.94687Q23.77187 166.94687 23.568745 167.25937Q23.42812 167.47812 23.20937 168.3375Q22.912495 169.49374 22.70937 169.94687Q22.49062 170.38437 22.11562 170.61874Q21.74062 170.85312 21.27187 170.85312Q20.86562 170.85312 20.506245 170.66562Q20.14687 170.47812 19.912495 170.15Q19.74062 169.9 19.61562 169.47812Q19.49062 169.05624 19.49062 168.55624Q19.49062 167.8375 19.70937 167.29062Q19.912495 166.72812 20.27187 166.4625Q20.631245 166.19687 21.224995 166.10312L21.36562 167.13437Q20.89687 167.19687 20.631245 167.54062Q20.349995 167.86874 20.349995 168.49374Q20.349995 169.2125 20.599995 169.525Q20.83437 169.8375 21.162495 169.8375Q21.36562 169.8375 21.52187 169.7125Q21.693745 169.57187 21.80312 169.30624Q21.86562 169.15 22.068745 168.36874Q22.381245 167.24374 22.568745 166.80624Q22.756245 166.36874 23.11562 166.11874Q23.474995 165.86874 24.02187 165.86874Q24.55312 165.86874 25.02187 166.18124Q25.474995 166.47812 25.74062 167.05624Q25.99062 167.63437 25.99062 168.36874Q25.99062 169.5875 25.49062 170.22812Q24.974995 170.85312 23.99062 171.025ZM23.849995 159.35312L23.974995 158.25937Q24.92812 158.50937 25.45937 159.2125Q25.99062 159.91562 25.99062 160.99374Q25.99062 162.35312 25.14687 163.16562Q24.30312 163.9625 22.787495 163.9625Q21.224995 163.9625 20.36562 163.15Q19.49062 162.3375 19.49062 161.05624Q19.49062 159.80624 20.33437 159.025Q21.17812 158.22812 22.724995 158.22812Q22.818745 158.22812 23.006245 158.22812L23.006245 162.86874Q24.037495 162.80624 24.58437 162.29062Q25.11562 161.775 25.11562 160.99374Q25.11562 160.41562 24.818745 160.00937Q24.506245 159.5875 23.849995 159.35312ZM22.14687 162.80624L22.14687 159.3375Q21.349995 159.4 20.95937 159.72812Q20.349995 160.24374 20.349995 161.04062Q20.349995 161.775 20.83437 162.275Q21.318745 162.75937 22.14687 162.80624ZM23.568745 152.54062L23.70937 151.50937Q24.77187 151.68124 25.381245 152.38437Q25.99062 153.0875 25.99062 154.10312Q25.99062 155.38437 25.162495 156.16562Q24.318745 156.93124 22.756245 156.93124Q21.756245 156.93124 21.006245 156.60312Q20.24062 156.25937 19.86562 155.5875Q19.49062 154.9 19.49062 154.0875Q19.49062 153.0875 20.006245 152.44687Q20.506245 151.79062 21.45937 151.60312L21.61562 152.63437Q20.99062 152.775 20.67812 153.15Q20.349995 153.525 20.349995 154.05624Q20.349995 154.85312 20.92812 155.35312Q21.49062 155.85312 22.724995 155.85312Q23.99062 155.85312 24.55312 155.36874Q25.11562 154.88437 25.11562 154.11874Q25.11562 153.49374 24.74062 153.0875Q24.36562 152.66562 23.568745 152.54062ZM22.74062 150.99374Q21.006245 150.99374 20.17812 150.04062Q19.49062 149.24374 19.49062 148.0875Q19.49062 146.80624 20.33437 145.99374Q21.162495 145.16562 22.64687 145.16562Q23.849995 145.16562 24.537495 145.525Q25.224995 145.88437 25.61562 146.5875Q25.99062 147.275 25.99062 148.0875Q25.99062 149.38437 25.162495 150.19687Q24.318745 150.99374 22.74062 150.99374ZM22.74062 149.91562Q23.92812 149.91562 24.52187 149.4Q25.11562 148.86874 25.11562 148.0875Q25.11562 147.29062 24.52187 146.775Q23.92812 146.25937 22.70937 146.25937Q21.55312 146.25937 20.95937 146.79062Q20.36562 147.30624 20.36562 148.0875Q20.36562 148.86874 20.95937 149.4Q21.537495 149.91562 22.74062 149.91562ZM25.849995 143.60312L19.631245 143.60312L19.631245 142.66562L20.506245 142.66562Q19.49062 141.97812 19.49062 140.68124Q19.49062 140.11874 19.693745 139.65Q19.89687 139.16562 20.224995 138.93124Q20.55312 138.69687 20.99062 138.60312Q21.287495 138.55624 22.02187 138.55624L25.849995 138.55624L25.849995 139.60312L22.068745 139.60312Q21.412495 139.60312 21.099995 139.72812Q20.787495 139.85312 20.599995 140.16562Q20.39687 140.47812 20.39687 140.9Q20.39687 141.57187 20.83437 142.07187Q21.256245 142.55624 22.443745 142.55624L25.849995 142.55624L25.849995 143.60312ZM25.849995 132.57187L25.068745 132.57187Q25.99062 133.16562 25.99062 134.30624Q25.99062 135.05624 25.58437 135.68124Q25.162495 136.30624 24.42812 136.65Q23.693745 136.99374 22.74062 136.99374Q21.818745 136.99374 21.05312 136.68124Q20.287495 136.36874 19.89687 135.74374Q19.49062 135.11874 19.49062 134.35312Q19.49062 133.79062 19.724995 133.35312Q19.95937 132.91562 20.33437 132.63437L17.256245 132.63437L17.256245 131.5875L25.849995 131.5875L25.849995 132.57187ZM22.74062 135.9Q23.943745 135.9 24.537495 135.4Q25.11562 134.9 25.11562 134.2125Q25.11562 133.525 24.55312 133.04062Q23.99062 132.55624 22.83437 132.55624Q21.55312 132.55624 20.95937 133.05624Q20.36562 133.54062 20.36562 134.25937Q20.36562 134.9625 20.943745 135.43124Q21.506245 135.9 22.74062 135.9ZM23.99062 130.025L23.83437 128.99374Q24.45937 128.9 24.787495 128.50937Q25.11562 128.10312 25.11562 127.368744Q25.11562 126.649994 24.83437 126.306244Q24.537495 125.94687 24.131245 125.94687Q23.77187 125.94687 23.568745 126.25937Q23.42812 126.47812 23.20937 127.337494Q22.912495 128.49374 22.70937 128.94687Q22.49062 129.38437 22.11562 129.61874Q21.74062 129.85312 21.27187 129.85312Q20.86562 129.85312 20.506245 129.66562Q20.14687 129.47812 19.912495 129.15Q19.74062 128.9 19.61562 128.47812Q19.49062 128.05624 19.49062 127.556244Q19.49062 126.837494 19.70937 126.29062Q19.912495 125.72812 20.27187 125.462494Q20.631245 125.19687 21.224995 125.10312L21.36562 126.13437Q20.89687 126.19687 20.631245 126.54062Q20.349995 126.868744 20.349995 127.493744Q20.349995 128.2125 20.599995 128.525Q20.83437 128.8375 21.162495 128.8375Q21.36562 128.8375 21.52187 128.7125Q21.693745 128.57187 21.80312 128.30624Q21.86562 128.15 22.068745 127.368744Q22.381245 126.243744 22.568745 125.806244Q22.756245 125.368744 23.11562 125.118744Q23.474995 124.868744 24.02187 124.868744Q24.55312 124.868744 25.02187 125.181244Q25.474995 125.47812 25.74062 126.056244Q25.99062 126.63437 25.99062 127.368744Q25.99062 128.5875 25.49062 129.22812Q24.974995 129.85312 23.99062 130.025Z" fill-rule="nonzero"/><path fill="#000000" d="M54.35 229.91562Q54.35 228.38437 54.6625 227.4625Q54.975 226.525 55.584373 226.025Q56.209373 225.525 57.146873 225.525Q57.834373 225.525 58.35 225.80624Q58.88125 226.0875 59.225 226.61874Q59.56875 227.13437 59.75625 227.88437Q59.94375 228.63437 59.94375 229.91562Q59.94375 231.43124 59.63125 232.35312Q59.334373 233.275 58.709373 233.79062Q58.1 234.29062 57.146873 234.29062Q55.9125 234.29062 55.19375 233.4Q54.35 232.3375 54.35 229.91562ZM55.428123 229.91562Q55.428123 232.025 55.928123 232.72812Q56.428123 233.43124 57.146873 233.43124Q57.88125 233.43124 58.365623 232.72812Q58.865623 232.025 58.865623 229.91562Q58.865623 227.79062 58.365623 227.10312Q57.88125 226.4 57.13125 226.4Q56.4125 226.4 55.975 227.00937Q55.428123 227.79062 55.428123 229.91562ZM61.94375 234.15L61.94375 232.94687L63.146873 232.94687L63.146873 234.15L61.94375 234.15ZM64.35 229.91562Q64.35 228.38437 64.6625 227.4625Q64.975 226.525 65.58437 226.025Q66.20937 225.525 67.14687 225.525Q67.83437 225.525 68.35 225.80624Q68.88125 226.0875 69.225 226.61874Q69.56875 227.13437 69.75625 227.88437Q69.94375 228.63437 69.94375 229.91562Q69.94375 231.43124 69.63125 232.35312Q69.33437 233.275 68.70937 233.79062Q68.1 234.29062 67.14687 234.29062Q65.9125 234.29062 65.19375 233.4Q64.35 232.3375 64.35 229.91562ZM65.42812 229.91562Q65.42812 232.025 65.92812 232.72812Q66.42812 233.43124 67.14687 233.43124Q67.88125 233.43124 68.36562 232.72812Q68.86562 232.025 68.86562 229.91562Q68.86562 227.79062 68.36562 227.10312Q67.88125 226.4 67.13125 226.4Q66.4125 226.4 65.975 227.00937Q65.42812 227.79062 65.42812 229.91562ZM71.35 229.91562Q71.35 228.38437 71.6625 227.4625Q71.975 226.525 72.58437 226.025Q73.20937 225.525 74.14687 225.525Q74.83437 225.525 75.35 225.80624Q75.88125 226.0875 76.225 226.61874Q76.56875 227.13437 76.75625 227.88437Q76.94375 228.63437 76.94375 229.91562Q76.94375 231.43124 76.63125 232.35312Q76.33437 233.275 75.70937 233.79062Q75.1 234.29062 74.14687 234.29062Q72.9125 234.29062 72.19375 233.4Q71.35 232.3375 71.35 229.91562ZM72.42812 229.91562Q72.42812 232.025 72.92812 232.72812Q73.42812 233.43124 74.14687 233.43124Q74.88125 233.43124 75.36562 232.72812Q75.86562 232.025 75.86562 229.91562Q75.86562 227.79062 75.36562 227.10312Q74.88125 226.4 74.13125 226.4Q73.4125 226.4 72.975 227.00937Q72.42812 227.79062 72.42812 229.91562Z" fill-rule="nonzero"/><path fill="#000000" d="M52.896873 195.50937L52.896873 196.525L47.209373 196.525Q47.209373 196.15 47.334373 195.79062Q47.553123 195.2125 48.021873 194.65Q48.50625 194.0875 49.4125 193.35312Q50.81875 192.19687 51.303123 191.525Q51.803123 190.85312 51.803123 190.25937Q51.803123 189.63437 51.35 189.2125Q50.896873 188.775 50.178123 188.775Q49.4125 188.775 48.959373 189.22812Q48.50625 189.68124 48.490623 190.49374L47.4125 190.38437Q47.521873 189.16562 48.240623 188.54062Q48.975 187.9 50.209373 187.9Q51.44375 187.9 52.1625 188.5875Q52.88125 189.275 52.88125 190.29062Q52.88125 190.80624 52.6625 191.30624Q52.459373 191.79062 51.959373 192.35312Q51.475 192.9 50.35 193.85312Q49.396873 194.65 49.115623 194.94687Q48.85 195.22812 48.678123 195.50937L52.896873 195.50937ZM54.35 192.29062Q54.35 190.75937 54.6625 189.8375Q54.975 188.9 55.584373 188.4Q56.209373 187.9 57.146873 187.9Q57.834373 187.9 58.35 188.18124Q58.88125 188.4625 59.225 188.99374Q59.56875 189.50937 59.75625 190.25937Q59.94375 191.00937 59.94375 192.29062Q59.94375 193.80624 59.63125 194.72812Q59.334373 195.65 58.709373 196.16562Q58.1 196.66562 57.146873 196.66562Q55.9125 196.66562 55.19375 195.775Q54.35 194.7125 54.35 192.29062ZM55.428123 192.29062Q55.428123 194.4 55.928123 195.10312Q56.428123 195.80624 57.146873 195.80624Q57.88125 195.80624 58.365623 195.10312Q58.865623 194.4 58.865623 192.29062Q58.865623 190.16562 58.365623 189.47812Q57.88125 188.775 57.13125 188.775Q56.4125 188.775 55.975 189.38437Q55.428123 190.16562 55.428123 192.29062ZM61.94375 196.525L61.94375 195.32187L63.146873 195.32187L63.146873 196.525L61.94375 196.525ZM64.35 192.29062Q64.35 190.75937 64.6625 189.8375Q64.975 188.9 65.58437 188.4Q66.20937 187.9 67.14687 187.9Q67.83437 187.9 68.35 188.18124Q68.88125 188.4625 69.225 188.99374Q69.56875 189.50937 69.75625 190.25937Q69.94375 191.00937 69.94375 192.29062Q69.94375 193.80624 69.63125 194.72812Q69.33437 195.65 68.70937 196.16562Q68.1 196.66562 67.14687 196.66562Q65.9125 196.66562 65.19375 195.775Q64.35 194.7125 64.35 192.29062ZM65.42812 192.29062Q65.42812 194.4 65.92812 195.10312Q66.42812 195.80624 67.14687 195.80624Q67.88125 195.80624 68.36562 195.10312Q68.86562 194.4 68.86562 192.29062Q68.86562 190.16562 68.36562 189.47812Q67.88125 188.775 67.13125 188.775Q66.4125 188.775 65.975 189.38437Q65.42812 190.16562 65.42812 192.29062ZM71.35 192.29062Q71.35 190.75937 71.6625 189.8375Q71.975 188.9 72.58437 188.4Q73.20937 187.9 74.14687 187.9Q74.83437 187.9 75.35 188.18124Q75.88125 188.4625 76.225 188.99374Q76.56875 189.50937 76.75625 190.25937Q76.94375 191.00937 76.94375 192.29062Q76.94375 193.80624 76.63125 194.72812Q76.33437 195.65 75.70937 196.16562Q75.1 196.66562 74.14687 196.66562Q72.9125 196.66562 72.19375 195.775Q71.35 194.7125 71.35 192.29062ZM72.42812 192.29062Q72.42812 194.4 72.92812 195.10312Q73.42812 195.80624 74.14687 195.80624Q74.88125 195.80624 75.36562 195.10312Q75.86562 194.4 75.86562 192.29062Q75.86562 190.16562 75.36562 189.47812Q74.88125 188.775 74.13125 188.775Q73.4125 188.775 72.975 189.38437Q72.42812 190.16562 72.42812 192.29062Z" fill-rule="nonzero"/><path fill="#000000" d="M50.725 158.9L50.725 156.8375L47.00625 156.8375L47.00625 155.86874L50.928123 150.30624L51.7875 150.30624L51.7875 155.86874L52.94375 155.86874L52.94375 156.8375L51.7875 156.8375L51.7875 158.9L50.725 158.9ZM50.725 155.86874L50.725 152.00937L48.0375 155.86874L50.725 155.86874ZM54.35 154.66562Q54.35 153.13437 54.6625 152.2125Q54.975 151.275 55.584373 150.775Q56.209373 150.275 57.146873 150.275Q57.834373 150.275 58.35 150.55624Q58.88125 150.8375 59.225 151.36874Q59.56875 151.88437 59.75625 152.63437Q59.94375 153.38437 59.94375 154.66562Q59.94375 156.18124 59.63125 157.10312Q59.334373 158.025 58.709373 158.54062Q58.1 159.04062 57.146873 159.04062Q55.9125 159.04062 55.19375 158.15Q54.35 157.0875 54.35 154.66562ZM55.428123 154.66562Q55.428123 156.775 55.928123 157.47812Q56.428123 158.18124 57.146873 158.18124Q57.88125 158.18124 58.365623 157.47812Q58.865623 156.775 58.865623 154.66562Q58.865623 152.54062 58.365623 151.85312Q57.88125 151.15 57.13125 151.15Q56.4125 151.15 55.975 151.75937Q55.428123 152.54062 55.428123 154.66562ZM61.94375 158.9L61.94375 157.69687L63.146873 157.69687L63.146873 158.9L61.94375 158.9ZM64.35 154.66562Q64.35 153.13437 64.6625 152.2125Q64.975 151.275 65.58437 150.775Q66.20937 150.275 67.14687 150.275Q67.83437 150.275 68.35 150.55624Q68.88125 150.8375 69.225 151.36874Q69.56875 151.88437 69.75625 152.63437Q69.94375 153.38437 69.94375 154.66562Q69.94375 156.18124 69.63125 157.10312Q69.33437 158.025 68.70937 158.54062Q68.1 159.04062 67.14687 159.04062Q65.9125 159.04062 65.19375 158.15Q64.35 157.0875 64.35 154.66562ZM65.42812 154.66562Q65.42812 156.775 65.92812 157.47812Q66.42812 158.18124 67.14687 158.18124Q67.88125 158.18124 68.36562 157.47812Q68.86562 156.775 68.86562 154.66562Q68.86562 152.54062 68.36562 151.85312Q67.88125 151.15 67.13125 151.15Q66.4125 151.15 65.975 151.75937Q65.42812 152.54062 65.42812 154.66562ZM71.35 154.66562Q71.35 153.13437 71.6625 152.2125Q71.975 151.275 72.58437 150.775Q73.20937 150.275 74.14687 150.275Q74.83437 150.275 75.35 150.55624Q75.88125 150.8375 76.225 151.36874Q76.56875 151.88437 76.75625 152.63437Q76.94375 153.38437 76.94375 154.66562Q76.94375 156.18124 76.63125 157.10312Q76.33437 158.025 75.70937 158.54062Q75.1 159.04062 74.14687 159.04062Q72.9125 159.04062 72.19375 158.15Q71.35 157.0875 71.35 154.66562ZM72.42812 154.66562Q72.42812 156.775 72.92812 157.47812Q73.42812 158.18124 74.14687 158.18124Q74.88125 158.18124 75.36562 157.47812Q75.86562 156.775 75.86562 154.66562Q75.86562 152.54062 75.36562 151.85312Q74.88125 151.15 74.13125 151.15Q73.4125 151.15 72.975 151.75937Q72.42812 152.54062 72.42812 154.66562Z" fill-rule="nonzero"/><path fill="#000000" d="M52.81875 114.79063L51.771873 114.86875Q51.63125 114.24375 51.38125 113.9625Q50.94375 113.50938 50.31875 113.50938Q49.81875 113.50938 49.428123 113.79063Q48.94375 114.16563 48.646873 114.86875Q48.365623 115.55625 48.35 116.8375Q48.725 116.25938 49.271873 115.97813Q49.834373 115.69688 50.44375 115.69688Q51.490623 115.69688 52.225 116.47813Q52.975 117.25938 52.975 118.47813Q52.975 119.29063 52.615623 119.99375Q52.271873 120.68125 51.6625 121.05625Q51.053123 121.41563 50.2875 121.41563Q48.959373 121.41563 48.13125 120.44688Q47.303123 119.47813 47.303123 117.25938Q47.303123 114.75938 48.225 113.63438Q49.021873 112.65 50.38125 112.65Q51.396873 112.65 52.0375 113.22813Q52.69375 113.79063 52.81875 114.79063ZM48.521873 118.49375Q48.521873 119.04063 48.740623 119.54063Q48.975 120.025 49.38125 120.29063Q49.803123 120.55625 50.271873 120.55625Q50.928123 120.55625 51.4125 120.025Q51.896873 119.47813 51.896873 118.55625Q51.896873 117.66563 51.4125 117.15Q50.94375 116.63438 50.225 116.63438Q49.50625 116.63438 49.00625 117.15Q48.521873 117.66563 48.521873 118.49375ZM54.35 117.04063Q54.35 115.50938 54.6625 114.5875Q54.975 113.65 55.584373 113.15Q56.209373 112.65 57.146873 112.65Q57.834373 112.65 58.35 112.93125Q58.88125 113.2125 59.225 113.74375Q59.56875 114.25938 59.75625 115.00938Q59.94375 115.75938 59.94375 117.04063Q59.94375 118.55625 59.63125 119.47813Q59.334373 120.4 58.709373 120.91563Q58.1 121.41563 57.146873 121.41563Q55.9125 121.41563 55.19375 120.525Q54.35 119.4625 54.35 117.04063ZM55.428123 117.04063Q55.428123 119.15 55.928123 119.85313Q56.428123 120.55625 57.146873 120.55625Q57.88125 120.55625 58.365623 119.85313Q58.865623 119.15 58.865623 117.04063Q58.865623 114.91563 58.365623 114.22813Q57.88125 113.525 57.13125 113.525Q56.4125 113.525 55.975 114.13438Q55.428123 114.91563 55.428123 117.04063ZM61.94375 121.275L61.94375 120.07188L63.146873 120.07188L63.146873 121.275L61.94375 121.275ZM64.35 117.04063Q64.35 115.50938 64.6625 114.5875Q64.975 113.65 65.58437 113.15Q66.20937 112.65 67.14687 112.65Q67.83437 112.65 68.35 112.93125Q68.88125 113.2125 69.225 113.74375Q69.56875 114.25938 69.75625 115.00938Q69.94375 115.75938 69.94375 117.04063Q69.94375 118.55625 69.63125 119.47813Q69.33437 120.4 68.70937 120.91563Q68.1 121.41563 67.14687 121.41563Q65.9125 121.41563 65.19375 120.525Q64.35 119.4625 64.35 117.04063ZM65.42812 117.04063Q65.42812 119.15 65.92812 119.85313Q66.42812 120.55625 67.14687 120.55625Q67.88125 120.55625 68.36562 119.85313Q68.86562 119.15 68.86562 117.04063Q68.86562 114.91563 68.36562 114.22813Q67.88125 113.525 67.13125 113.525Q66.4125 113.525 65.975 114.13438Q65.42812 114.91563 65.42812 117.04063ZM71.35 117.04063Q71.35 115.50938 71.6625 114.5875Q71.975 113.65 72.58437 113.15Q73.20937 112.65 74.14687 112.65Q74.83437 112.65 75.35 112.93125Q75.88125 113.2125 76.225 113.74375Q76.56875 114.25938 76.75625 115.00938Q76.94375 115.75938 76.94375 117.04063Q76.94375 118.55625 76.63125 119.47813Q76.33437 120.4 75.70937 120.91563Q75.1 121.41563 74.14687 121.41563Q72.9125 121.41563 72.19375 120.525Q71.35 119.4625 71.35 117.04063ZM72.42812 117.04063Q72.42812 119.15 72.92812 119.85313Q73.42812 120.55625 74.14687 120.55625Q74.88125 120.55625 75.36562 119.85313Q75.86562 119.15 75.86562 117.04063Q75.86562 114.91563 75.36562 114.22813Q74.88125 113.525 74.13125 113.525Q73.4125 113.525 72.975 114.13438Q72.42812 114.91563 72.42812 117.04063Z" fill-rule="nonzero"/><path fill="#000000" d="M48.975 78.99375Q48.31875 78.74375 47.990623 78.30625Q47.678123 77.85313 47.678123 77.24375Q47.678123 76.30625 48.35 75.66563Q49.0375 75.025 50.146873 75.025Q51.271873 75.025 51.959373 75.68125Q52.646873 76.3375 52.646873 77.275Q52.646873 77.86875 52.334373 78.30625Q52.021873 78.74375 51.38125 78.99375Q52.178123 79.24375 52.584373 79.82188Q52.990623 80.4 52.990623 81.19688Q52.990623 82.29063 52.209373 83.04063Q51.44375 83.79063 50.1625 83.79063Q48.896873 83.79063 48.115623 83.04063Q47.334373 82.29063 47.334373 81.16563Q47.334373 80.32188 47.75625 79.75938Q48.19375 79.19688 48.975 78.99375ZM48.75625 77.19688Q48.75625 77.80625 49.146873 78.19688Q49.553123 78.5875 50.178123 78.5875Q50.7875 78.5875 51.178123 78.2125Q51.56875 77.82188 51.56875 77.25938Q51.56875 76.68125 51.1625 76.29063Q50.75625 75.88438 50.1625 75.88438Q49.553123 75.88438 49.146873 76.275Q48.75625 76.66563 48.75625 77.19688ZM48.428123 81.16563Q48.428123 81.61875 48.63125 82.04063Q48.85 82.4625 49.271873 82.69688Q49.69375 82.93125 50.178123 82.93125Q50.928123 82.93125 51.4125 82.44688Q51.9125 81.9625 51.9125 81.2125Q51.9125 80.44688 51.4125 79.94688Q50.9125 79.44688 50.146873 79.44688Q49.396873 79.44688 48.9125 79.94688Q48.428123 80.43125 48.428123 81.16563ZM54.35 79.41563Q54.35 77.88438 54.6625 76.9625Q54.975 76.025 55.584373 75.525Q56.209373 75.025 57.146873 75.025Q57.834373 75.025 58.35 75.30625Q58.88125 75.5875 59.225 76.11875Q59.56875 76.63438 59.75625 77.38438Q59.94375 78.13438 59.94375 79.41563Q59.94375 80.93125 59.63125 81.85313Q59.334373 82.775 58.709373 83.29063Q58.1 83.79063 57.146873 83.79063Q55.9125 83.79063 55.19375 82.9Q54.35 81.8375 54.35 79.41563ZM55.428123 79.41563Q55.428123 81.525 55.928123 82.22813Q56.428123 82.93125 57.146873 82.93125Q57.88125 82.93125 58.365623 82.22813Q58.865623 81.525 58.865623 79.41563Q58.865623 77.29063 58.365623 76.60313Q57.88125 75.9 57.13125 75.9Q56.4125 75.9 55.975 76.50938Q55.428123 77.29063 55.428123 79.41563ZM61.94375 83.65L61.94375 82.44688L63.146873 82.44688L63.146873 83.65L61.94375 83.65ZM64.35 79.41563Q64.35 77.88438 64.6625 76.9625Q64.975 76.025 65.58437 75.525Q66.20937 75.025 67.14687 75.025Q67.83437 75.025 68.35 75.30625Q68.88125 75.5875 69.225 76.11875Q69.56875 76.63438 69.75625 77.38438Q69.94375 78.13438 69.94375 79.41563Q69.94375 80.93125 69.63125 81.85313Q69.33437 82.775 68.70937 83.29063Q68.1 83.79063 67.14687 83.79063Q65.9125 83.79063 65.19375 82.9Q64.35 81.8375 64.35 79.41563ZM65.42812 79.41563Q65.42812 81.525 65.92812 82.22813Q66.42812 82.93125 67.14687 82.93125Q67.88125 82.93125 68.36562 82.22813Q68.86562 81.525 68.86562 79.41563Q68.86562 77.29063 68.36562 76.60313Q67.88125 75.9 67.13125 75.9Q66.4125 75.9 65.975 76.50938Q65.42812 77.29063 65.42812 79.41563ZM71.35 79.41563Q71.35 77.88438 71.6625 76.9625Q71.975 76.025 72.58437 75.525Q73.20937 75.025 74.14687 75.025Q74.83437 75.025 75.35 75.30625Q75.88125 75.5875 76.225 76.11875Q76.56875 76.63438 76.75625 77.38438Q76.94375 78.13438 76.94375 79.41563Q76.94375 80.93125 76.63125 81.85313Q76.33437 82.775 75.70937 83.29063Q75.1 83.79063 74.14687 83.79063Q72.9125 83.79063 72.19375 82.9Q71.35 81.8375 71.35 79.41563ZM72.42812 79.41563Q72.42812 81.525 72.92812 82.22813Q73.42812 82.93125 74.14687 82.93125Q74.88125 82.93125 75.36562 82.22813Q75.86562 81.525 75.86562 79.41563Q75.86562 77.29063 75.36562 76.60313Q74.88125 75.9 74.13125 75.9Q73.4125 75.9 72.975 76.50938Q72.42812 77.29063 72.42812 79.41563Z" fill-rule="nonzero"/><path fill="#000000" d="M135.00836 244.9L136.11774 244.80624Q136.24274 245.61874 136.68024 246.025Q137.13336 246.43124 137.77399 246.43124Q138.52399 246.43124 139.05524 245.85312Q139.58649 245.275 139.58649 244.3375Q139.58649 243.43124 139.07086 242.91562Q138.57086 242.38437 137.74274 242.38437Q137.24274 242.38437 136.82086 242.61874Q136.41461 242.85312 136.18024 243.2125L135.19586 243.0875L136.02399 238.68124L140.30524 238.68124L140.30524 239.68124L136.86774 239.68124L136.41461 241.99374Q137.18024 241.44687 138.02399 241.44687Q139.14899 241.44687 139.91461 242.22812Q140.69586 243.00937 140.69586 244.24374Q140.69586 245.4 140.02399 246.25937Q139.19586 247.29062 137.77399 247.29062Q136.60211 247.29062 135.85211 246.63437Q135.11774 245.97812 135.00836 244.9ZM142.00836 242.91562Q142.00836 241.38437 142.32086 240.4625Q142.63336 239.525 143.24274 239.025Q143.86774 238.525 144.80524 238.525Q145.49274 238.525 146.00836 238.80624Q146.53961 239.0875 146.88336 239.61874Q147.22711 240.13437 147.41461 240.88437Q147.60211 241.63437 147.60211 242.91562Q147.60211 244.43124 147.28961 245.35312Q146.99274 246.275 146.36774 246.79062Q145.75836 247.29062 144.80524 247.29062Q143.57086 247.29062 142.85211 246.4Q142.00836 245.3375 142.00836 242.91562ZM143.08649 242.91562Q143.08649 245.025 143.58649 245.72812Q144.08649 246.43124 144.80524 246.43124Q145.53961 246.43124 146.02399 245.72812Q146.52399 245.025 146.52399 242.91562Q146.52399 240.79062 146.02399 240.10312Q145.53961 239.4 144.78961 239.4Q144.07086 239.4 143.63336 240.00937Q143.08649 240.79062 143.08649 242.91562Z" fill-rule="nonzero"/><path fill="#000000" d="M198.14925 247.15L197.10237 247.15L197.10237 240.43124Q196.71175 240.79062 196.08675 241.16562Q195.47737 241.525 194.993 241.69687L194.993 240.68124Q195.868 240.25937 196.52425 239.68124Q197.19612 239.0875 197.47737 238.525L198.14925 238.525L198.14925 247.15ZM201.1805 242.91562Q201.1805 241.38437 201.493 240.4625Q201.8055 239.525 202.41487 239.025Q203.03987 238.525 203.97737 238.525Q204.66487 238.525 205.1805 238.80624Q205.71175 239.0875 206.0555 239.61874Q206.39925 240.13437 206.58675 240.88437Q206.77425 241.63437 206.77425 242.91562Q206.77425 244.43124 206.46175 245.35312Q206.16487 246.275 205.53987 246.79062Q204.9305 247.29062 203.97737 247.29062Q202.743 247.29062 202.02425 246.4Q201.1805 245.3375 201.1805 242.91562ZM202.25862 242.91562Q202.25862 245.025 202.75862 245.72812Q203.25862 246.43124 203.97737 246.43124Q204.71175 246.43124 205.19612 245.72812Q205.69612 245.025 205.69612 242.91562Q205.69612 240.79062 205.19612 240.10312Q204.71175 239.4 203.96175 239.4Q203.243 239.4 202.8055 240.00937Q202.25862 240.79062 202.25862 242.91562ZM208.1805 242.91562Q208.1805 241.38437 208.493 240.4625Q208.8055 239.525 209.41487 239.025Q210.03987 238.525 210.97737 238.525Q211.66487 238.525 212.1805 238.80624Q212.71175 239.0875 213.0555 239.61874Q213.39925 240.13437 213.58675 240.88437Q213.77425 241.63437 213.77425 242.91562Q213.77425 244.43124 213.46175 245.35312Q213.16487 246.275 212.53987 246.79062Q211.9305 247.29062 210.97737 247.29062Q209.743 247.29062 209.02425 246.4Q208.1805 245.3375 208.1805 242.91562ZM209.25862 242.91562Q209.25862 245.025 209.75862 245.72812Q210.25862 246.43124 210.97737 246.43124Q211.71175 246.43124 212.19612 245.72812Q212.69612 245.025 212.69612 242.91562Q212.69612 240.79062 212.19612 240.10312Q211.71175 239.4 210.96175 239.4Q210.243 239.4 209.8055 240.00937Q209.25862 240.79062 209.25862 242.91562Z" fill-rule="nonzero"/><path fill="#000000" d="M260.82138 247.15L259.7745 247.15L259.7745 240.43124Q259.38388 240.79062 258.75888 241.16562Q258.1495 241.525 257.66513 241.69687L257.66513 240.68124Q258.54013 240.25937 259.19638 239.68124Q259.86826 239.0875 260.1495 238.525L260.82138 238.525L260.82138 247.15ZM263.85263 244.9L264.962 244.80624Q265.087 245.61874 265.5245 246.025Q265.97763 246.43124 266.61826 246.43124Q267.36826 246.43124 267.8995 245.85312Q268.43076 245.275 268.43076 244.3375Q268.43076 243.43124 267.91513 242.91562Q267.41513 242.38437 266.587 242.38437Q266.087 242.38437 265.66513 242.61874Q265.25888 242.85312 265.0245 243.2125L264.04013 243.0875L264.86826 238.68124L269.1495 238.68124L269.1495 239.68124L265.712 239.68124L265.25888 241.99374Q266.0245 241.44687 266.86826 241.44687Q267.99326 241.44687 268.75888 242.22812Q269.54013 243.00937 269.54013 244.24374Q269.54013 245.4 268.86826 246.25937Q268.04013 247.29062 266.61826 247.29062Q265.44638 247.29062 264.69638 246.63437Q263.962 245.97812 263.85263 244.9ZM270.85263 242.91562Q270.85263 241.38437 271.16513 240.4625Q271.47763 239.525 272.087 239.025Q272.712 238.525 273.6495 238.525Q274.337 238.525 274.85263 238.80624Q275.38388 239.0875 275.72763 239.61874Q276.07138 240.13437 276.25888 240.88437Q276.44638 241.63437 276.44638 242.91562Q276.44638 244.43124 276.13388 245.35312Q275.837 246.275 275.212 246.79062Q274.60263 247.29062 273.6495 247.29062Q272.41513 247.29062 271.69638 246.4Q270.85263 245.3375 270.85263 242.91562ZM271.93076 242.91562Q271.93076 245.025 272.43076 245.72812Q272.93076 246.43124 273.6495 246.43124Q274.38388 246.43124 274.86826 245.72812Q275.36826 245.025 275.36826 242.91562Q275.36826 240.79062 274.86826 240.10312Q274.38388 239.4 273.63388 239.4Q272.91513 239.4 272.47763 240.00937Q271.93076 240.79062 271.93076 242.91562Z" fill-rule="nonzero"/><path fill="#000000" d="M325.07162 246.13437L325.07162 247.15L319.38412 247.15Q319.38412 246.775 319.50912 246.41562Q319.72787 245.8375 320.19662 245.275Q320.681 244.7125 321.58725 243.97812Q322.9935 242.82187 323.47787 242.15Q323.97787 241.47812 323.97787 240.88437Q323.97787 240.25937 323.52475 239.8375Q323.07162 239.4 322.35287 239.4Q321.58725 239.4 321.13412 239.85312Q320.681 240.30624 320.66537 241.11874L319.58725 241.00937Q319.69662 239.79062 320.41537 239.16562Q321.14975 238.525 322.38412 238.525Q323.6185 238.525 324.33725 239.2125Q325.056 239.9 325.056 240.91562Q325.056 241.43124 324.83725 241.93124Q324.63412 242.41562 324.13412 242.97812Q323.64975 243.525 322.52475 244.47812Q321.57162 245.275 321.29037 245.57187Q321.02475 245.85312 320.85287 246.13437L325.07162 246.13437ZM326.52475 242.91562Q326.52475 241.38437 326.83725 240.4625Q327.14975 239.525 327.75912 239.025Q328.38412 238.525 329.32162 238.525Q330.00912 238.525 330.52475 238.80624Q331.056 239.0875 331.39975 239.61874Q331.7435 240.13437 331.931 240.88437Q332.1185 241.63437 332.1185 242.91562Q332.1185 244.43124 331.806 245.35312Q331.50912 246.275 330.88412 246.79062Q330.27475 247.29062 329.32162 247.29062Q328.08725 247.29062 327.3685 246.4Q326.52475 245.3375 326.52475 242.91562ZM327.60287 242.91562Q327.60287 245.025 328.10287 245.72812Q328.60287 246.43124 329.32162 246.43124Q330.056 246.43124 330.54037 245.72812Q331.04037 245.025 331.04037 242.91562Q331.04037 240.79062 330.54037 240.10312Q330.056 239.4 329.306 239.4Q328.58725 239.4 328.14975 240.00937Q327.60287 240.79062 327.60287 242.91562ZM333.52475 242.91562Q333.52475 241.38437 333.83725 240.4625Q334.14975 239.525 334.75912 239.025Q335.38412 238.525 336.32162 238.525Q337.00912 238.525 337.52475 238.80624Q338.056 239.0875 338.39975 239.61874Q338.7435 240.13437 338.931 240.88437Q339.1185 241.63437 339.1185 242.91562Q339.1185 244.43124 338.806 245.35312Q338.50912 246.275 337.88412 246.79062Q337.27475 247.29062 336.32162 247.29062Q335.08725 247.29062 334.3685 246.4Q333.52475 245.3375 333.52475 242.91562ZM334.60287 242.91562Q334.60287 245.025 335.10287 245.72812Q335.60287 246.43124 336.32162 246.43124Q337.056 246.43124 337.54037 245.72812Q338.04037 245.025 338.04037 242.91562Q338.04037 240.79062 337.54037 240.10312Q337.056 239.4 336.306 239.4Q335.58725 239.4 335.14975 240.00937Q334.60287 240.79062 334.60287 242.91562Z" fill-rule="nonzero"/><path fill="#000000" d="M387.74377 246.13437L387.74377 247.15L382.05627 247.15Q382.05627 246.775 382.18127 246.41562Q382.40002 245.8375 382.86877 245.275Q383.35315 244.7125 384.2594 243.97812Q385.66565 242.82187 386.15002 242.15Q386.65002 241.47812 386.65002 240.88437Q386.65002 240.25937 386.1969 239.8375Q385.74377 239.4 385.02502 239.4Q384.2594 239.4 383.80627 239.85312Q383.35315 240.30624 383.33752 241.11874L382.2594 241.00937Q382.36877 239.79062 383.08752 239.16562Q383.8219 238.525 385.05627 238.525Q386.29065 238.525 387.0094 239.2125Q387.72815 239.9 387.72815 240.91562Q387.72815 241.43124 387.5094 241.93124Q387.30627 242.41562 386.80627 242.97812Q386.3219 243.525 385.1969 244.47812Q384.24377 245.275 383.96252 245.57187Q383.6969 245.85312 383.52502 246.13437L387.74377 246.13437ZM389.1969 244.9L390.30627 244.80624Q390.43127 245.61874 390.86877 246.025Q391.3219 246.43124 391.96252 246.43124Q392.71252 246.43124 393.24377 245.85312Q393.77502 245.275 393.77502 244.3375Q393.77502 243.43124 393.2594 242.91562Q392.7594 242.38437 391.93127 242.38437Q391.43127 242.38437 391.0094 242.61874Q390.60315 242.85312 390.36877 243.2125L389.3844 243.0875L390.21252 238.68124L394.49377 238.68124L394.49377 239.68124L391.05627 239.68124L390.60315 241.99374Q391.36877 241.44687 392.21252 241.44687Q393.33752 241.44687 394.10315 242.22812Q394.8844 243.00937 394.8844 244.24374Q394.8844 245.4 394.21252 246.25937Q393.3844 247.29062 391.96252 247.29062Q390.79065 247.29062 390.04065 246.63437Q389.30627 245.97812 389.1969 244.9ZM396.1969 242.91562Q396.1969 241.38437 396.5094 240.4625Q396.8219 239.525 397.43127 239.025Q398.05627 238.525 398.99377 238.525Q399.68127 238.525 400.1969 238.80624Q400.72815 239.0875 401.0719 239.61874Q401.41565 240.13437 401.60315 240.88437Q401.79065 241.63437 401.79065 242.91562Q401.79065 244.43124 401.47815 245.35312Q401.18127 246.275 400.55627 246.79062Q399.9469 247.29062 398.99377 247.29062Q397.7594 247.29062 397.04065 246.4Q396.1969 245.3375 396.1969 242.91562ZM397.27502 242.91562Q397.27502 245.025 397.77502 245.72812Q398.27502 246.43124 398.99377 246.43124Q399.72815 246.43124 400.21252 245.72812Q400.71252 245.025 400.71252 242.91562Q400.71252 240.79062 400.21252 240.10312Q399.72815 239.4 398.97815 239.4Q398.2594 239.4 397.8219 240.00937Q397.27502 240.79062 397.27502 242.91562Z" fill-rule="nonzero"/><path fill="#000000" d="M444.86902 244.88437L445.93152 244.74374Q446.1034 245.63437 446.5409 246.04062Q446.9784 246.43124 447.6034 246.43124Q448.3534 246.43124 448.86902 245.91562Q449.38464 245.4 449.38464 244.63437Q449.38464 243.91562 448.90027 243.44687Q448.43152 242.9625 447.69714 242.9625Q447.40027 242.9625 446.94714 243.0875L447.07214 242.15Q447.18152 242.16562 447.24402 242.16562Q447.9159 242.16562 448.44714 241.82187Q448.99402 241.4625 448.99402 240.72812Q448.99402 240.15 448.6034 239.775Q448.21277 239.38437 447.58777 239.38437Q446.9784 239.38437 446.55652 239.775Q446.15027 240.16562 446.0409 240.93124L444.9784 240.74374Q445.1659 239.69687 445.8534 239.11874Q446.5409 238.525 447.55652 238.525Q448.25964 238.525 448.8534 238.8375Q449.44714 239.13437 449.75964 239.65Q450.07214 240.16562 450.07214 240.75937Q450.07214 241.30624 449.77527 241.775Q449.4784 242.22812 448.90027 242.49374Q449.65027 242.66562 450.07214 243.22812Q450.49402 243.775 450.49402 244.61874Q450.49402 245.74374 449.6659 246.525Q448.8534 247.30624 447.6034 247.30624Q446.4784 247.30624 445.7284 246.63437Q444.9784 245.94687 444.86902 244.88437ZM451.86902 242.91562Q451.86902 241.38437 452.18152 240.4625Q452.49402 239.525 453.1034 239.025Q453.7284 238.525 454.6659 238.525Q455.3534 238.525 455.86902 238.80624Q456.40027 239.0875 456.74402 239.61874Q457.08777 240.13437 457.27527 240.88437Q457.46277 241.63437 457.46277 242.91562Q457.46277 244.43124 457.15027 245.35312Q456.8534 246.275 456.2284 246.79062Q455.61902 247.29062 454.6659 247.29062Q453.43152 247.29062 452.71277 246.4Q451.86902 245.3375 451.86902 242.91562ZM452.94714 242.91562Q452.94714 245.025 453.44714 245.72812Q453.94714 246.43124 454.6659 246.43124Q455.40027 246.43124 455.88464 245.72812Q456.38464 245.025 456.38464 242.91562Q456.38464 240.79062 455.88464 240.10312Q455.40027 239.4 454.65027 239.4Q453.93152 239.4 453.49402 240.00937Q452.94714 240.79062 452.94714 242.91562ZM458.86902 242.91562Q458.86902 241.38437 459.18152 240.4625Q459.49402 239.525 460.1034 239.025Q460.7284 238.525 461.6659 238.525Q462.3534 238.525 462.86902 238.80624Q463.40027 239.0875 463.74402 239.61874Q464.08777 240.13437 464.27527 240.88437Q464.46277 241.63437 464.46277 242.91562Q464.46277 244.43124 464.15027 245.35312Q463.8534 246.275 463.2284 246.79062Q462.61902 247.29062 461.6659 247.29062Q460.43152 247.29062 459.71277 246.4Q458.86902 245.3375 458.86902 242.91562ZM459.94714 242.91562Q459.94714 245.025 460.44714 245.72812Q460.94714 246.43124 461.6659 246.43124Q462.40027 246.43124 462.88464 245.72812Q463.38464 245.025 463.38464 242.91562Q463.38464 240.79062 462.88464 240.10312Q462.40027 239.4 461.65027 239.4Q460.93152 239.4 460.49402 240.00937Q459.94714 240.79062 459.94714 242.91562Z" fill-rule="nonzero"/><path stroke="#4285f4" stroke-width="4.0" stroke-linecap="butt" d="M169.5 55.75L181.5 55.75" fill-rule="nonzero"/><path fill="#1a1a1a" d="M190.04688 56.984375L191.10938 56.890625Q191.1875 57.546875 191.46875 57.953125Q191.75 58.359375 192.32812 58.625Q192.92188 58.875 193.65625 58.875Q194.29688 58.875 194.79688 58.6875Q195.29688 58.484375 195.53125 58.15625Q195.78125 57.8125 195.78125 57.421875Q195.78125 57.015625 195.54688 56.71875Q195.3125 56.40625 194.78125 56.203125Q194.42188 56.0625 193.23438 55.78125Q192.0625 55.5 191.59375 55.25Q190.96875 54.921875 190.67188 54.453125Q190.375 53.96875 190.375 53.375Q190.375 52.734375 190.73438 52.171875Q191.10938 51.59375 191.8125 51.3125Q192.53125 51.015625 193.39062 51.015625Q194.34375 51.015625 195.07812 51.328125Q195.8125 51.625 196.20312 52.234375Q196.59375 52.828125 196.625 53.578125L195.53125 53.65625Q195.4375 52.84375 194.92188 52.4375Q194.42188 52.015625 193.4375 52.015625Q192.40625 52.015625 191.9375 52.390625Q191.46875 52.765625 191.46875 53.296875Q191.46875 53.765625 191.79688 54.0625Q192.125 54.359375 193.5 54.671875Q194.89062 54.984375 195.40625 55.21875Q196.15625 55.578125 196.51562 56.109375Q196.875 56.625 196.875 57.328125Q196.875 58.015625 196.48438 58.625Q196.09375 59.21875 195.35938 59.5625Q194.625 59.890625 193.70312 59.890625Q192.53125 59.890625 191.73438 59.5625Q190.95312 59.21875 190.5 58.53125Q190.0625 57.84375 190.04688 56.984375ZM198.29688 62.140625L198.29688 53.53125L199.25 53.53125L199.25 54.328125Q199.59375 53.859375 200.01562 53.625Q200.45312 53.390625 201.0625 53.390625Q201.85938 53.390625 202.46875 53.796875Q203.07812 54.203125 203.375 54.953125Q203.6875 55.703125 203.6875 56.59375Q203.6875 57.546875 203.34375 58.3125Q203.01562 59.078125 202.35938 59.484375Q201.70312 59.890625 200.98438 59.890625Q200.45312 59.890625 200.03125 59.671875Q199.60938 59.4375 199.34375 59.109375L199.34375 62.140625L198.29688 62.140625ZM199.25 56.671875Q199.25 57.875 199.73438 58.453125Q200.21875 59.015625 200.90625 59.015625Q201.60938 59.015625 202.10938 58.421875Q202.60938 57.828125 202.60938 56.578125Q202.60938 55.390625 202.125 54.8125Q201.64062 54.21875 200.95312 54.21875Q200.28125 54.21875 199.76562 54.84375Q199.25 55.46875 199.25 56.671875ZM204.90625 56.640625Q204.90625 54.90625 205.85938 54.078125Q206.65625 53.390625 207.8125 53.390625Q209.09375 53.390625 209.90625 54.234375Q210.73438 55.0625 210.73438 56.546875Q210.73438 57.75 210.375 58.4375Q210.01562 59.125 209.3125 59.515625Q208.625 59.890625 207.8125 59.890625Q206.51562 59.890625 205.70312 59.0625Q204.90625 58.21875 204.90625 56.640625ZM205.98438 56.640625Q205.98438 57.828125 206.5 58.421875Q207.03125 59.015625 207.8125 59.015625Q208.60938 59.015625 209.125 58.421875Q209.64062 57.828125 209.64062 56.609375Q209.64062 55.453125 209.10938 54.859375Q208.59375 54.265625 207.8125 54.265625Q207.03125 54.265625 206.5 54.859375Q205.98438 55.4375 205.98438 56.640625ZM211.90625 56.640625Q211.90625 54.90625 212.85938 54.078125Q213.65625 53.390625 214.8125 53.390625Q216.09375 53.390625 216.90625 54.234375Q217.73438 55.0625 217.73438 56.546875Q217.73438 57.75 217.375 58.4375Q217.01562 59.125 216.3125 59.515625Q215.625 59.890625 214.8125 59.890625Q213.51562 59.890625 212.70312 59.0625Q211.90625 58.21875 211.90625 56.640625ZM212.98438 56.640625Q212.98438 57.828125 213.5 58.421875Q214.03125 59.015625 214.8125 59.015625Q215.60938 59.015625 216.125 58.421875Q216.64062 57.828125 216.64062 56.609375Q216.64062 55.453125 216.10938 54.859375Q215.59375 54.265625 214.8125 54.265625Q214.03125 54.265625 213.5 54.859375Q212.98438 55.4375 212.98438 56.640625ZM219.29688 59.75L219.29688 51.15625L220.35938 51.15625L220.35938 56.0625L222.84375 53.53125L224.21875 53.53125L221.82812 55.828125L224.45312 59.75L223.15625 59.75L221.09375 56.5625L220.35938 57.28125L220.35938 59.75L219.29688 59.75ZM225.25 62.140625L225.125 61.15625Q225.46875 61.25 225.73438 61.25Q226.07812 61.25 226.28125 61.125Q226.5 61.015625 226.64062 60.8125Q226.73438 60.640625 226.96875 60.015625Q226.98438 59.9375 227.0625 59.765625L224.6875 53.53125L225.82812 53.53125L227.125 57.125Q227.375 57.8125 227.57812 58.578125Q227.76562 57.84375 228.01562 57.15625L229.34375 53.53125L230.39062 53.53125L228.03125 59.859375Q227.64062 60.875 227.4375 61.265625Q227.15625 61.796875 226.78125 62.03125Q226.42188 62.28125 225.92188 62.28125Q225.625 62.28125 225.25 62.140625Z" fill-rule="nonzero"/><path stroke="#ea4335" stroke-width="4.0" stroke-linecap="butt" d="M245.5 55.75L257.5 55.75" fill-rule="nonzero"/><path fill="#1a1a1a" d="M267.92188 59.75L265.64062 51.15625L266.8125 51.15625L268.125 56.796875Q268.32812 57.671875 268.48438 58.546875Q268.8125 57.171875 268.875 56.953125L270.5 51.15625L271.875 51.15625L273.10938 55.5Q273.5625 57.125 273.78125 58.546875Q273.9375 57.734375 274.20312 56.671875L275.54688 51.15625L276.6875 51.15625L274.34375 59.75L273.23438 59.75L271.4375 53.203125Q271.20312 52.390625 271.15625 52.203125Q271.03125 52.78125 270.90625 53.203125L269.09375 59.75L267.92188 59.75ZM277.25 62.140625L277.125 61.15625Q277.46875 61.25 277.73438 61.25Q278.07812 61.25 278.28125 61.125Q278.5 61.015625 278.64062 60.8125Q278.73438 60.640625 278.96875 60.015625Q278.98438 59.9375 279.0625 59.765625L276.6875 53.53125L277.82812 53.53125L279.125 57.125Q279.375 57.8125 279.57812 58.578125Q279.76562 57.84375 280.01562 57.15625L281.34375 53.53125L282.39062 53.53125L280.03125 59.859375Q279.64062 60.875 279.4375 61.265625Q279.15625 61.796875 278.78125 62.03125Q278.42188 62.28125 277.92188 62.28125Q277.625 62.28125 277.25 62.140625ZM282.46875 59.75L282.46875 51.15625L283.59375 51.15625L283.59375 54.6875L288.0625 54.6875L288.0625 51.15625L289.20312 51.15625L289.20312 59.75L288.0625 59.75L288.0625 55.703125L283.59375 55.703125L283.59375 59.75L282.46875 59.75ZM295.35938 58.984375Q294.76562 59.484375 294.21875 59.6875Q293.6875 59.890625 293.0625 59.890625Q292.03125 59.890625 291.48438 59.390625Q290.9375 58.890625 290.9375 58.109375Q290.9375 57.65625 291.14062 57.28125Q291.34375 56.890625 291.6875 56.671875Q292.03125 56.4375 292.45312 56.328125Q292.75 56.234375 293.39062 56.15625Q294.65625 56.015625 295.26562 55.796875Q295.26562 55.578125 295.26562 55.53125Q295.26562 54.875 294.96875 54.609375Q294.5625 54.265625 293.76562 54.265625Q293.03125 54.265625 292.67188 54.53125Q292.3125 54.78125 292.14062 55.4375L291.10938 55.296875Q291.25 54.640625 291.57812 54.234375Q291.90625 53.828125 292.51562 53.609375Q293.125 53.390625 293.92188 53.390625Q294.71875 53.390625 295.21875 53.578125Q295.71875 53.765625 295.95312 54.046875Q296.1875 54.328125 296.28125 54.765625Q296.32812 55.03125 296.32812 55.734375L296.32812 57.140625Q296.32812 58.609375 296.39062 59.0Q296.46875 59.390625 296.67188 59.75L295.5625 59.75Q295.40625 59.421875 295.35938 58.984375ZM295.26562 56.625Q294.6875 56.859375 293.54688 57.03125Q292.89062 57.125 292.625 57.25Q292.35938 57.359375 292.20312 57.578125Q292.0625 57.796875 292.0625 58.078125Q292.0625 58.5 292.375 58.78125Q292.70312 59.0625 293.3125 59.0625Q293.92188 59.0625 294.39062 58.796875Q294.875 58.53125 295.09375 58.0625Q295.26562 57.703125 295.26562 57.015625L295.26562 56.625ZM297.875 57.890625L298.90625 57.734375Q299.0 58.359375 299.39062 58.6875Q299.79688 59.015625 300.53125 59.015625Q301.25 59.015625 301.59375 58.734375Q301.95312 58.4375 301.95312 58.03125Q301.95312 57.671875 301.64062 57.46875Q301.42188 57.328125 300.5625 57.109375Q299.40625 56.8125 298.95312 56.609375Q298.51562 56.390625 298.28125 56.015625Q298.04688 55.640625 298.04688 55.171875Q298.04688 54.765625 298.23438 54.40625Q298.42188 54.046875 298.75 53.8125Q299.0 53.640625 299.42188 53.515625Q299.84375 53.390625 300.34375 53.390625Q301.0625 53.390625 301.60938 53.609375Q302.17188 53.8125 302.4375 54.171875Q302.70312 54.53125 302.79688 55.125L301.76562 55.265625Q301.70312 54.796875 301.35938 54.53125Q301.03125 54.25 300.40625 54.25Q299.6875 54.25 299.375 54.5Q299.0625 54.734375 299.0625 55.0625Q299.0625 55.265625 299.1875 55.421875Q299.32812 55.59375 299.59375 55.703125Q299.75 55.765625 300.53125 55.96875Q301.65625 56.28125 302.09375 56.46875Q302.53125 56.65625 302.78125 57.015625Q303.03125 57.375 303.03125 57.921875Q303.03125 58.453125 302.71875 58.921875Q302.42188 59.375 301.84375 59.640625Q301.26562 59.890625 300.53125 59.890625Q299.3125 59.890625 298.67188 59.390625Q298.04688 58.875 297.875 57.890625ZM305.29688 59.75L305.29688 51.15625L306.34375 51.15625L306.34375 54.234375Q307.07812 53.390625 308.20312 53.390625Q308.90625 53.390625 309.40625 53.671875Q309.92188 53.9375 310.14062 54.421875Q310.35938 54.890625 310.35938 55.8125L310.35938 59.75L309.3125 59.75L309.3125 55.8125Q309.3125 55.015625 308.96875 54.65625Q308.625 54.296875 308.0 54.296875Q307.53125 54.296875 307.10938 54.546875Q306.70312 54.78125 306.51562 55.203125Q306.34375 55.609375 306.34375 56.34375L306.34375 59.75L305.29688 59.75Z" fill-rule="nonzero"/><path fill="#757575" d="M18.896875 33.85L15.1 19.537498L17.0375 19.537498L19.209375 28.912498Q19.56875 30.396873 19.81875 31.849998Q20.365625 29.553123 20.459375 29.193748L23.19375 19.537498L25.475 19.537498L27.521875 26.771873Q28.303125 29.474998 28.646875 31.849998Q28.9125 30.490623 29.35 28.724998L31.6 19.537498L33.50625 19.537498L29.584375 33.85L27.75625 33.85L24.740625 22.943748Q24.35 21.568748 24.2875 21.256248Q24.053125 22.240623 23.865625 22.943748L20.834375 33.85L18.896875 33.85ZM35.178123 21.553123L35.178123 19.537498L36.94375 19.537498L36.94375 21.553123L35.178123 21.553123ZM35.178123 33.85L35.178123 23.474998L36.94375 23.474998L36.94375 33.85L35.178123 33.85ZM39.1625 33.85L39.1625 23.474998L40.75625 23.474998L40.75625 24.959373Q41.896873 23.240623 44.053123 23.240623Q44.990623 23.240623 45.771873 23.584373Q46.56875 23.912498 46.959373 24.459373Q47.35 25.006248 47.50625 25.756248Q47.6 26.256248 47.6 27.474998L47.6 33.85L45.834373 33.85L45.834373 27.537498Q45.834373 26.459373 45.63125 25.928123Q45.428123 25.396873 44.896873 25.084373Q44.38125 24.771873 43.678123 24.771873Q42.553123 24.771873 41.740623 25.490623Q40.928123 26.193748 40.928123 28.178123L40.928123 33.85L39.1625 33.85ZM55.896873 33.85L55.896873 32.5375Q54.9125 34.084373 52.990623 34.084373Q51.75625 34.084373 50.709373 33.396873Q49.678123 32.709373 49.1 31.490623Q48.5375 30.271873 48.5375 28.678123Q48.5375 27.115623 49.053123 25.849998Q49.56875 24.584373 50.6 23.912498Q51.646873 23.240623 52.9125 23.240623Q53.85 23.240623 54.584373 23.646873Q55.31875 24.037498 55.7875 24.662498L55.7875 19.537498L57.521873 19.537498L57.521873 33.85L55.896873 33.85ZM50.334373 28.678123Q50.334373 30.662498 51.178123 31.646873Q52.021873 32.63125 53.1625 32.63125Q54.31875 32.63125 55.115623 31.693748Q55.928123 30.756248 55.928123 28.818748Q55.928123 26.693748 55.1 25.693748Q54.2875 24.693748 53.084373 24.693748Q51.9125 24.693748 51.115623 25.662498Q50.334373 26.615623 50.334373 28.678123ZM59.521873 28.662498Q59.521873 25.787498 61.115623 24.396873Q62.459373 23.240623 64.38125 23.240623Q66.52187 23.240623 67.86562 24.646873Q69.225 26.053123 69.225 28.521873Q69.225 30.521873 68.63125 31.678123Q68.0375 32.81875 66.88125 33.459373Q65.74062 34.084373 64.38125 34.084373Q62.19375 34.084373 60.85 32.69375Q59.521873 31.287498 59.521873 28.662498ZM61.31875 28.662498Q61.31875 30.662498 62.178123 31.646873Q63.053123 32.63125 64.38125 32.63125Q65.69375 32.63125 66.55312 31.646873Q67.42812 30.646873 67.42812 28.599998Q67.42812 26.678123 66.55312 25.693748Q65.67812 24.693748 64.38125 24.693748Q63.053123 24.693748 62.178123 25.693748Q61.31875 26.678123 61.31875 28.662498ZM73.08437 33.85L69.9125 23.474998L71.725 23.474998L73.38125 29.459373L73.99062 31.693748Q74.0375 31.521873 74.52187 29.553123L76.17812 23.474998L77.99062 23.474998L79.5375 29.490623L80.05312 31.474998L80.64687 29.474998L82.42812 23.474998L84.13125 23.474998L80.89687 33.85L79.06875 33.85L77.4125 27.631248L77.02187 25.865623L74.9125 33.85L73.08437 33.85ZM85.45937 30.756248L87.20937 30.474998Q87.35 31.521873 88.02187 32.084373Q88.69375 32.63125 89.89687 32.63125Q91.1 32.63125 91.67812 32.146873Q92.27187 31.646873 92.27187 30.990623Q92.27187 30.396873 91.75625 30.053123Q91.39687 29.818748 89.95937 29.459373Q88.02187 28.959373 87.27187 28.615623Q86.5375 28.256248 86.14687 27.631248Q85.75625 26.990623 85.75625 26.224998Q85.75625 25.537498 86.06875 24.943748Q86.39687 24.349998 86.94375 23.959373Q87.35 23.662498 88.05312 23.459373Q88.77187 23.240623 89.58437 23.240623Q90.80312 23.240623 91.725 23.599998Q92.64687 23.943748 93.08437 24.553123Q93.52187 25.146873 93.69375 26.146873L91.975 26.381248Q91.85 25.584373 91.2875 25.146873Q90.725 24.693748 89.70937 24.693748Q88.49062 24.693748 87.975 25.099998Q87.45937 25.490623 87.45937 26.021873Q87.45937 26.365623 87.67812 26.646873Q87.88125 26.928123 88.35 27.115623Q88.61562 27.209373 89.89687 27.553123Q91.77187 28.053123 92.50625 28.381248Q93.24062 28.693748 93.6625 29.303123Q94.08437 29.896873 94.08437 30.803123Q94.08437 31.678123 93.56875 32.459373Q93.05312 33.240623 92.08437 33.6625Q91.11562 34.084373 89.89687 34.084373Q87.88125 34.084373 86.81875 33.240623Q85.75625 32.396873 85.45937 30.756248Z" fill-rule="nonzero"/></svg>